<?xml version="1.0" encoding="UTF-8" standalone="no"?>
<svg
   xmlns:dc="http://purl.org/dc/elements/1.1/"
   xmlns:cc="http://creativecommons.org/ns#"
   xmlns:rdf="http://www.w3.org/1999/02/22-rdf-syntax-ns#"
   xmlns:svg="http://www.w3.org/2000/svg"
   xmlns="http://www.w3.org/2000/svg"
   id="svg8"
   version="1.1"
   viewBox="0 0 210 297"
   height="297mm"
   width="210mm">
  <defs
     id="defs2">
    <clipPath
       clipPathUnits="userSpaceOnUse"
       id="clipPath3758">
      <path
         d="M 30000,0 H 15000 V 7564.4 H 30000 V 0 m -9038.6,4753.1 c 0,-610.2 48.4,-1848.3 1603.4,-2751.3 1562.2,907.2 1605.6,2188.2 1605.7,2784.5 0,34.8 -0.2,67.4 -0.2,97.3 0,96.8 1.5,167 14.5,203.4 v 0 0 0 c -2.8,-2.6 -100,-93.3 -239.5,-151.7 -66.8,-27.9 -143.2,-48.5 -223.6,-48.5 -130.3,0 -271.2,54.1 -398.1,218.3 -102.3,132.5 -758.8,138.5 -758.8,138.5 0,0 -656.4,-6 -758.8,-138.5 v 0 c -32,-41.3 -64.8,-75.7 -98.1,-104 -0.1,-0.1 -0.2,-0.1 -0.2,-0.2 -1,-0.8 -1.9,-1.6 -2.9,-2.4 -98.1,-82.1 -200.3,-111.7 -296.9,-111.7 -250.9,0 -463.1,200.2 -463.1,200.2 v 0 0 c 15,-41.9 16.8,-118.3 16.8,-221.5 0,-34.5 -0.2,-72.1 -0.2,-112.4"
         id="path3756" />
    </clipPath>
    <linearGradient
       x1="0"
       y1="0"
       x2="1"
       y2="0"
       gradientUnits="userSpaceOnUse"
       gradientTransform="matrix(18444.3,0,0,-18444.3,15000,3782.2)"
       spreadMethod="pad"
       id="linearGradient3784">
      <stop
         style="stop-opacity:1;stop-color:#e9c156"
         offset="0"
         id="stop3762" />
      <stop
         style="stop-opacity:1;stop-color:#bf8000"
         offset="0.09074477"
         id="stop3764" />
      <stop
         style="stop-opacity:1;stop-color:#bf8000"
         offset="0.101763"
         id="stop3766" />
      <stop
         style="stop-opacity:1;stop-color:#bf8000"
         offset="0.14054716"
         id="stop3768" />
      <stop
         style="stop-opacity:1;stop-color:#e1ab39"
         offset="0.285616"
         id="stop3770" />
      <stop
         style="stop-opacity:1;stop-color:#e9c258"
         offset="0.63399586"
         id="stop3772" />
      <stop
         style="stop-opacity:1;stop-color:#e9c258"
         offset="0.690949"
         id="stop3774" />
      <stop
         style="stop-opacity:1;stop-color:#ffffaa"
         offset="0.81044689"
         id="stop3776" />
      <stop
         style="stop-opacity:1;stop-color:#ffffaa"
         offset="0.919754"
         id="stop3778" />
      <stop
         style="stop-opacity:1;stop-color:#ffffaa"
         offset="0.94610094"
         id="stop3780" />
      <stop
         style="stop-opacity:1;stop-color:#e9c156"
         offset="1"
         id="stop3782" />
    </linearGradient>
    <clipPath
       clipPathUnits="userSpaceOnUse"
       id="clipPath3794">
      <path
         d="m 12830.1,9488.9 c 0,23 -4.8,42.3 -14.3,57.8 -17.5,30 -47.8,45 -90.8,45 h -1.5 v 6.8 c 24,0 43.5,7 58.5,21 15,14 22.5,35.8 22.5,65.3 0,60 -27.2,90 -81.8,90 h -21 v -391 h 30 c 29,0 52.7,8.6 71,25.6 18.2,17 27.4,43.5 27.4,79.5 z m 86.2,203.4 c 0,-18.5 -4,-34.8 -12,-48.8 -15.5,-27 -39,-41.8 -70.5,-44.3 33.5,-2.5 61.5,-14.4 84,-35.6 22.6,-21.3 33.8,-48.5 33.8,-81.4 0,-64.6 -38.8,-105.1 -116.3,-121.6 -22,-4.5 -46,-6.8 -72,-6.8 h -217.7 v 7.5 h 8.3 c 11.5,0 21.1,3.8 28.9,11.3 7.7,7.5 11.9,17 12.4,28.5 v 355.7 c -0.5,18 -9.1,30.3 -25.5,36.8 -5.1,2 -10.3,3 -15.8,3 h -8.3 v 7.5 h 201.1 c 113.1,0 169.6,-37.3 169.6,-111.8 z"
         id="path3792" />
    </clipPath>
    <linearGradient
       x1="0"
       y1="0"
       x2="1"
       y2="0"
       gradientUnits="userSpaceOnUse"
       gradientTransform="matrix(-2.5e-5,570.951,570.951,2.5e-5,12748.6,9270.8)"
       spreadMethod="pad"
       id="linearGradient3814">
      <stop
         style="stop-opacity:1;stop-color:#e9c156"
         offset="0"
         id="stop3796" />
      <stop
         style="stop-opacity:1;stop-color:#633110"
         offset="0.09074477"
         id="stop3798" />
      <stop
         style="stop-opacity:1;stop-color:#633110"
         offset="0.101763"
         id="stop3800" />
      <stop
         style="stop-opacity:1;stop-color:#633110"
         offset="0.1406752"
         id="stop3802" />
      <stop
         style="stop-opacity:1;stop-color:#e1ab39"
         offset="0.286223"
         id="stop3804" />
      <stop
         style="stop-opacity:1;stop-color:#ffffaa"
         offset="0.56451695"
         id="stop3806" />
      <stop
         style="stop-opacity:1;stop-color:#ffffaa"
         offset="0.819078"
         id="stop3808" />
      <stop
         style="stop-opacity:1;stop-color:#ffffaa"
         offset="0.8784796"
         id="stop3810" />
      <stop
         style="stop-opacity:1;stop-color:#e9c156"
         offset="1"
         id="stop3812" />
    </linearGradient>
    <clipPath
       clipPathUnits="userSpaceOnUse"
       id="clipPath3824">
      <path
         d="m 13184.3,9773.3 h -24 v -372.2 c 0,-12 4.1,-21.6 12.3,-28.9 8.3,-7.3 17.7,-10.9 28.2,-10.9 h 8.2 v -7.5 h -206.3 v 7.5 h 9 c 11,0 20.4,3.8 28.1,11.3 7.7,7.5 11.6,16.8 11.6,27.7 v 357.2 c 0,11.1 -3.9,20.4 -11.6,27.8 -7.7,7.5 -16.9,11.3 -27.4,11.3 h -9.7 v 7.5 h 230.3 c 45.1,0 82.9,-8.7 113.4,-26.2 34,-19.6 51,-51.8 51,-96.9 0,-29 -8.8,-55.2 -26.3,-78.4 -17.5,-23.3 -43.5,-37.4 -78,-42.4 13.5,-4.5 26.9,-13 40.1,-25.5 13.3,-12.5 23.9,-25.3 31.9,-38.3 16,-28.5 32.8,-54.7 50.3,-78.4 17.5,-23.8 31.6,-39.2 42.4,-46.1 10.7,-7.1 23.9,-10.6 39.4,-10.6 v -7.5 h -63 c -41.6,0 -73.5,5 -95.7,15.1 -22.3,9.9 -42.2,29 -59.7,56.9 -27,43.1 -43.8,77.1 -50.3,102.1 -6,15 -13.1,26.3 -21.3,33.8 -8.3,7.5 -16.2,11.7 -23.7,12.8 v 6 h 18.8 c 42.5,0.5 68.5,25.5 78,75 2,7.5 3,14 3,19.5 0,5.5 -0.2,13.2 -0.7,22.9 -0.5,9.8 -3.6,20.8 -9.4,33 -5.8,12.3 -13.1,21.1 -22.2,26.6 -15.5,9.6 -31.5,14.6 -48,15.1 -5.5,0.5 -11.8,0.7 -18.7,0.7 z"
         id="path3822" />
    </clipPath>
    <linearGradient
       x1="0"
       y1="0"
       x2="1"
       y2="0"
       gradientUnits="userSpaceOnUse"
       gradientTransform="matrix(-2.5e-5,570.951,570.951,2.5e-5,13249.9,9270.8)"
       spreadMethod="pad"
       id="linearGradient3844">
      <stop
         style="stop-opacity:1;stop-color:#e9c156"
         offset="0"
         id="stop3826" />
      <stop
         style="stop-opacity:1;stop-color:#633110"
         offset="0.09074477"
         id="stop3828" />
      <stop
         style="stop-opacity:1;stop-color:#633110"
         offset="0.101763"
         id="stop3830" />
      <stop
         style="stop-opacity:1;stop-color:#633110"
         offset="0.1406752"
         id="stop3832" />
      <stop
         style="stop-opacity:1;stop-color:#e1ab39"
         offset="0.286223"
         id="stop3834" />
      <stop
         style="stop-opacity:1;stop-color:#ffffaa"
         offset="0.56451695"
         id="stop3836" />
      <stop
         style="stop-opacity:1;stop-color:#ffffaa"
         offset="0.819078"
         id="stop3838" />
      <stop
         style="stop-opacity:1;stop-color:#ffffaa"
         offset="0.8784796"
         id="stop3840" />
      <stop
         style="stop-opacity:1;stop-color:#e9c156"
         offset="1"
         id="stop3842" />
    </linearGradient>
    <clipPath
       clipPathUnits="userSpaceOnUse"
       id="clipPath3854">
      <path
         d="m 13619.5,9500.9 h 133.6 l -66,156.8 z m 358.7,-139.6 h 6 v -7.5 h -220.6 v 7.5 h 6 c 10,0 17.3,3 21.8,9.1 4.5,6 6.7,11.4 6.7,16.4 0,5 -1,10.3 -3,15.8 l -29.3,69 h -159 l -30.1,-69.8 c -2,-5 -3,-10.1 -3,-15.3 0,-5.3 2.4,-10.8 7.2,-16.6 4.7,-5.7 12.1,-8.6 22.1,-8.6 h 6 v -7.5 h -150.1 v 7.5 h 6 c 10.5,0 21,3.3 31.5,9.8 10.5,6.5 19,16.2 25.5,29.2 l 155.4,333.2 c 22,49.6 33.5,80.1 34.5,91.6 h 6.8 l 201.1,-421.8 c 6.5,-14.4 15.1,-25.1 25.9,-31.8 10.7,-6.8 21.6,-10.2 32.6,-10.2 z"
         id="path3852" />
    </clipPath>
    <linearGradient
       x1="0"
       y1="0"
       x2="1"
       y2="0"
       gradientUnits="userSpaceOnUse"
       gradientTransform="matrix(-2.5e-5,570.891,570.891,2.5e-5,13721.6,9270.9)"
       spreadMethod="pad"
       id="linearGradient3874">
      <stop
         style="stop-opacity:1;stop-color:#e9c156"
         offset="0"
         id="stop3856" />
      <stop
         style="stop-opacity:1;stop-color:#633110"
         offset="0.09074477"
         id="stop3858" />
      <stop
         style="stop-opacity:1;stop-color:#633110"
         offset="0.101763"
         id="stop3860" />
      <stop
         style="stop-opacity:1;stop-color:#633110"
         offset="0.1406752"
         id="stop3862" />
      <stop
         style="stop-opacity:1;stop-color:#e1ab39"
         offset="0.286223"
         id="stop3864" />
      <stop
         style="stop-opacity:1;stop-color:#ffffaa"
         offset="0.56451695"
         id="stop3866" />
      <stop
         style="stop-opacity:1;stop-color:#ffffaa"
         offset="0.819078"
         id="stop3868" />
      <stop
         style="stop-opacity:1;stop-color:#ffffaa"
         offset="0.8784796"
         id="stop3870" />
      <stop
         style="stop-opacity:1;stop-color:#e9c156"
         offset="1"
         id="stop3872" />
    </linearGradient>
    <clipPath
       clipPathUnits="userSpaceOnUse"
       id="clipPath3884">
      <path
         d="m 14320.4,9804.1 h 210.9 v -7.5 h -12.8 c -11.5,0 -21.1,-3.5 -28.9,-10.5 -7.7,-7 -11.8,-16.1 -12.3,-27.1 v -327.9 c 0,-31 2,-56.5 6,-76.5 l 1.5,-10.5 h -6.8 l -344.4,303.9 v -248.4 c 0.5,-11 4.6,-20.1 12.4,-27.4 7.7,-7.3 17.3,-10.9 28.8,-10.9 h 12.8 v -7.5 h -210.1 v 7.5 h 12 c 11.5,0 21.2,3.6 29.2,10.9 8.1,7.3 12.1,16.4 12.1,27.4 v 330.2 c 0,30 -2,54.8 -6.1,74.3 l -1.5,10.5 6.8,-0.7 343.7,-302.4 v 246.8 c 0,11 -3.9,20.1 -11.6,27.4 -7.8,7.2 -17.4,10.9 -28.9,10.9 h -12.8 z"
         id="path3882" />
    </clipPath>
    <linearGradient
       x1="0"
       y1="0"
       x2="1"
       y2="0"
       gradientUnits="userSpaceOnUse"
       gradientTransform="matrix(-2.5e-5,570.886,570.886,2.5e-5,14254.4,9270.9)"
       spreadMethod="pad"
       id="linearGradient3904">
      <stop
         style="stop-opacity:1;stop-color:#e9c156"
         offset="0"
         id="stop3886" />
      <stop
         style="stop-opacity:1;stop-color:#633110"
         offset="0.09074477"
         id="stop3888" />
      <stop
         style="stop-opacity:1;stop-color:#633110"
         offset="0.101763"
         id="stop3890" />
      <stop
         style="stop-opacity:1;stop-color:#633110"
         offset="0.1406752"
         id="stop3892" />
      <stop
         style="stop-opacity:1;stop-color:#e1ab39"
         offset="0.286223"
         id="stop3894" />
      <stop
         style="stop-opacity:1;stop-color:#ffffaa"
         offset="0.56451695"
         id="stop3896" />
      <stop
         style="stop-opacity:1;stop-color:#ffffaa"
         offset="0.819078"
         id="stop3898" />
      <stop
         style="stop-opacity:1;stop-color:#ffffaa"
         offset="0.8784796"
         id="stop3900" />
      <stop
         style="stop-opacity:1;stop-color:#e9c156"
         offset="1"
         id="stop3902" />
    </linearGradient>
    <clipPath
       clipPathUnits="userSpaceOnUse"
       id="clipPath3914">
      <path
         d="m 14815.7,9383.8 c 47,0 84.2,17.3 111.5,51.8 27.2,34.5 40.8,82.3 40.8,143.4 0,61 -13.6,108.9 -40.8,143.7 -27.3,34.8 -64.5,52.1 -111.5,52.1 h -84.8 v -391 z m 198.1,360.7 c 45.5,-39.8 68.3,-95 68.3,-165.5 0,-70.6 -22.8,-125.7 -68.3,-165.5 -45.5,-39.8 -108.6,-59.7 -189.1,-59.7 h -253.6 v 7.5 h 9.7 c 11.5,0 21.3,4 29.3,12 8,8 12.3,17.6 12.8,28.5 v 355.7 c -1.1,11.1 -5.6,20.4 -13.5,27.8 -8.1,7.5 -17.8,11.3 -29.3,11.3 h -9 v 7.5 h 253.6 c 80.5,0 143.6,-19.9 189.1,-59.6 z"
         id="path3912" />
    </clipPath>
    <linearGradient
       x1="0"
       y1="0"
       x2="1"
       y2="0"
       gradientUnits="userSpaceOnUse"
       gradientTransform="matrix(-2.5e-5,570.951,570.951,2.5e-5,14826.6,9270.8)"
       spreadMethod="pad"
       id="linearGradient3934">
      <stop
         style="stop-opacity:1;stop-color:#e9c156"
         offset="0"
         id="stop3916" />
      <stop
         style="stop-opacity:1;stop-color:#633110"
         offset="0.09074477"
         id="stop3918" />
      <stop
         style="stop-opacity:1;stop-color:#633110"
         offset="0.101763"
         id="stop3920" />
      <stop
         style="stop-opacity:1;stop-color:#633110"
         offset="0.1406752"
         id="stop3922" />
      <stop
         style="stop-opacity:1;stop-color:#e1ab39"
         offset="0.286223"
         id="stop3924" />
      <stop
         style="stop-opacity:1;stop-color:#ffffaa"
         offset="0.56451695"
         id="stop3926" />
      <stop
         style="stop-opacity:1;stop-color:#ffffaa"
         offset="0.819078"
         id="stop3928" />
      <stop
         style="stop-opacity:1;stop-color:#ffffaa"
         offset="0.8784796"
         id="stop3930" />
      <stop
         style="stop-opacity:1;stop-color:#e9c156"
         offset="1"
         id="stop3932" />
    </linearGradient>
    <clipPath
       clipPathUnits="userSpaceOnUse"
       id="clipPath3944">
      <path
         d="m 15654,9804.1 h 210.8 v -7.5 h -12.7 c -11.6,0 -21.2,-3.5 -28.9,-10.5 -7.8,-7 -11.9,-16.1 -12.4,-27.1 v -327.9 c 0,-31 2,-56.5 6,-76.5 l 1.5,-10.5 h -6.7 l -344.5,303.9 v -248.4 c 0.5,-11 4.6,-20.1 12.4,-27.4 7.8,-7.3 17.4,-10.9 28.9,-10.9 h 12.7 v -7.5 H 15311 v 7.5 h 12 c 11.5,0 21.3,3.6 29.3,10.9 8,7.3 12,16.4 12,27.4 v 330.2 c 0,30 -2.1,54.8 -6,74.3 l -1.5,10.5 6.7,-0.7 343.7,-302.4 v 246.8 c 0,11 -3.9,20.1 -11.6,27.4 -7.8,7.2 -17.4,10.9 -28.9,10.9 h -12.7 z"
         id="path3942" />
    </clipPath>
    <linearGradient
       x1="0"
       y1="0"
       x2="1"
       y2="0"
       gradientUnits="userSpaceOnUse"
       gradientTransform="matrix(-2.5e-5,570.886,570.886,2.5e-5,15587.9,9270.9)"
       spreadMethod="pad"
       id="linearGradient3964">
      <stop
         style="stop-opacity:1;stop-color:#e9c156"
         offset="0"
         id="stop3946" />
      <stop
         style="stop-opacity:1;stop-color:#633110"
         offset="0.09074477"
         id="stop3948" />
      <stop
         style="stop-opacity:1;stop-color:#633110"
         offset="0.101763"
         id="stop3950" />
      <stop
         style="stop-opacity:1;stop-color:#633110"
         offset="0.1406752"
         id="stop3952" />
      <stop
         style="stop-opacity:1;stop-color:#e1ab39"
         offset="0.286223"
         id="stop3954" />
      <stop
         style="stop-opacity:1;stop-color:#ffffaa"
         offset="0.56451695"
         id="stop3956" />
      <stop
         style="stop-opacity:1;stop-color:#ffffaa"
         offset="0.819078"
         id="stop3958" />
      <stop
         style="stop-opacity:1;stop-color:#ffffaa"
         offset="0.8784796"
         id="stop3960" />
      <stop
         style="stop-opacity:1;stop-color:#e9c156"
         offset="1"
         id="stop3962" />
    </linearGradient>
    <clipPath
       clipPathUnits="userSpaceOnUse"
       id="clipPath3974">
      <path
         d="m 16020.9,9500.9 h 133.6 l -66,156.8 z m 358.7,-139.6 h 6 v -7.5 H 16165 v 7.5 h 6 c 10,0 17.3,3 21.8,9.1 4.5,6 6.7,11.4 6.7,16.4 0,5 -1,10.3 -3,15.8 l -29.3,69 h -159 l -30.1,-69.8 c -2,-5 -3,-10.1 -3,-15.3 0,-5.3 2.4,-10.8 7.1,-16.6 4.8,-5.7 12.2,-8.6 22.2,-8.6 h 6 v -7.5 h -150.1 v 7.5 h 6 c 10.6,0 21,3.3 31.6,9.8 10.4,6.5 19,16.2 25.5,29.2 l 155.3,333.2 c 22,49.6 33.5,80.1 34.5,91.6 h 6.8 l 201.1,-421.8 c 6.5,-14.4 15.1,-25.1 25.9,-31.8 10.8,-6.8 21.6,-10.2 32.6,-10.2 z"
         id="path3972" />
    </clipPath>
    <linearGradient
       x1="0"
       y1="0"
       x2="1"
       y2="0"
       gradientUnits="userSpaceOnUse"
       gradientTransform="matrix(-2.5e-5,570.891,570.891,2.5e-5,16123,9270.9)"
       spreadMethod="pad"
       id="linearGradient3996">
      <stop
         style="stop-opacity:1;stop-color:#e9c156"
         offset="0"
         id="stop3978" />
      <stop
         style="stop-opacity:1;stop-color:#633110"
         offset="0.09074477"
         id="stop3980" />
      <stop
         style="stop-opacity:1;stop-color:#633110"
         offset="0.101763"
         id="stop3982" />
      <stop
         style="stop-opacity:1;stop-color:#633110"
         offset="0.1406752"
         id="stop3984" />
      <stop
         style="stop-opacity:1;stop-color:#e1ab39"
         offset="0.286223"
         id="stop3986" />
      <stop
         style="stop-opacity:1;stop-color:#ffffaa"
         offset="0.56451695"
         id="stop3988" />
      <stop
         style="stop-opacity:1;stop-color:#ffffaa"
         offset="0.819078"
         id="stop3990" />
      <stop
         style="stop-opacity:1;stop-color:#ffffaa"
         offset="0.8784796"
         id="stop3992" />
      <stop
         style="stop-opacity:1;stop-color:#e9c156"
         offset="1"
         id="stop3994" />
    </linearGradient>
    <clipPath
       clipPathUnits="userSpaceOnUse"
       id="clipPath4006">
      <path
         d="m 17007.8,9361.3 h 10.5 v -7.5 h -208.6 v 7.5 h 10.5 c 9.5,0 16.3,3.3 20.6,9.8 4.2,6.5 5.9,13.2 4.9,20.3 l -29.3,214.6 -119.3,-189.9 c -18,-28.5 -27,-54 -27,-76.5 h -6.8 l -173.3,262.6 -25.6,-210.8 c -1,-7.1 0.8,-13.8 5.3,-20.3 4.5,-6.5 11.3,-9.8 20.3,-9.8 h 10.5 v -7.5 h -142.6 v 7.5 h 10.5 c 12.5,0 23.3,3.6 32.6,10.9 9.3,7.3 14.7,17.2 16.2,29.6 l 58.5,412.1 h 6 l 212.4,-317.5 198.8,317.5 h 6.8 l 60,-415.8 c 2.5,-11.5 8.3,-20.5 17.3,-27 9,-6.5 19.3,-9.8 30.8,-9.8 z"
         id="path4004" />
    </clipPath>
    <linearGradient
       x1="0"
       y1="0"
       x2="1"
       y2="0"
       gradientUnits="userSpaceOnUse"
       gradientTransform="matrix(-2.5e-5,570.907,570.907,2.5e-5,16688.1,9270.9)"
       spreadMethod="pad"
       id="linearGradient4028">
      <stop
         style="stop-opacity:1;stop-color:#e9c156"
         offset="0"
         id="stop4010" />
      <stop
         style="stop-opacity:1;stop-color:#633110"
         offset="0.09074477"
         id="stop4012" />
      <stop
         style="stop-opacity:1;stop-color:#633110"
         offset="0.101763"
         id="stop4014" />
      <stop
         style="stop-opacity:1;stop-color:#633110"
         offset="0.1406752"
         id="stop4016" />
      <stop
         style="stop-opacity:1;stop-color:#e1ab39"
         offset="0.286223"
         id="stop4018" />
      <stop
         style="stop-opacity:1;stop-color:#ffffaa"
         offset="0.56451695"
         id="stop4020" />
      <stop
         style="stop-opacity:1;stop-color:#ffffaa"
         offset="0.819078"
         id="stop4022" />
      <stop
         style="stop-opacity:1;stop-color:#ffffaa"
         offset="0.8784796"
         id="stop4024" />
      <stop
         style="stop-opacity:1;stop-color:#e9c156"
         offset="1"
         id="stop4026" />
    </linearGradient>
    <clipPath
       clipPathUnits="userSpaceOnUse"
       id="clipPath4038">
      <path
         d="m 17389.7,9353.8 h -353.4 v 7.5 h 9 c 11.5,0 21.1,3.8 28.9,11.3 7.7,7.5 11.9,16.8 12.4,27.7 v 357.2 c -0.5,11.1 -4.7,20.4 -12.4,27.8 -7.8,7.5 -17.4,11.3 -28.9,11.3 h -9 v 7.5 h 264.1 c 13.5,0 28.3,1.2 44.3,3.7 16,2.5 27.3,5.1 33.8,7.6 V 9696 h -7.5 v 6.8 c 0,22 -6,39.3 -18.1,51.8 -11.9,12.5 -28.7,19 -50.2,19.4 h -108.1 v -182.3 h 85.6 c 17,0.5 30.7,6.3 41.3,17.3 10.4,11 15.7,25 15.7,42 v 5.2 h 7.5 v -159 h -7.5 v 5.2 c 0,23.5 -8.8,40.5 -26.3,51 -9,5.6 -19,8.3 -29.9,8.3 h -86.4 v -177.9 h 90 c 31.1,0.5 57.5,10.2 79.2,29 21.8,18.7 37.7,45.1 47.7,79.1 h 6.8 z"
         id="path4036" />
    </clipPath>
    <linearGradient
       x1="0"
       y1="0"
       x2="1"
       y2="0"
       gradientUnits="userSpaceOnUse"
       gradientTransform="matrix(-2.5e-5,570.938,570.938,2.5e-5,17227.3,9270.8)"
       spreadMethod="pad"
       id="linearGradient4060">
      <stop
         style="stop-opacity:1;stop-color:#e9c156"
         offset="0"
         id="stop4042" />
      <stop
         style="stop-opacity:1;stop-color:#633110"
         offset="0.09074477"
         id="stop4044" />
      <stop
         style="stop-opacity:1;stop-color:#633110"
         offset="0.101763"
         id="stop4046" />
      <stop
         style="stop-opacity:1;stop-color:#633110"
         offset="0.1406752"
         id="stop4048" />
      <stop
         style="stop-opacity:1;stop-color:#e1ab39"
         offset="0.286223"
         id="stop4050" />
      <stop
         style="stop-opacity:1;stop-color:#ffffaa"
         offset="0.56451695"
         id="stop4052" />
      <stop
         style="stop-opacity:1;stop-color:#ffffaa"
         offset="0.819078"
         id="stop4054" />
      <stop
         style="stop-opacity:1;stop-color:#ffffaa"
         offset="0.8784796"
         id="stop4056" />
      <stop
         style="stop-opacity:1;stop-color:#e9c156"
         offset="1"
         id="stop4058" />
    </linearGradient>
    <clipPath
       clipPathUnits="userSpaceOnUse"
       id="clipPath4070">
      <path
         d="M 13099.7,9137.9 V 9121 h -50.5 v -143.7 h -20.8 V 9121 h -50.5 v 16.9 z"
         id="path4068" />
    </clipPath>
    <linearGradient
       x1="0"
       y1="0"
       x2="1"
       y2="0"
       gradientUnits="userSpaceOnUse"
       gradientTransform="matrix(-5.22e-5,1195.14,1195.14,5.22e-5,13038.8,8559.8)"
       spreadMethod="pad"
       id="linearGradient4090">
      <stop
         style="stop-opacity:1;stop-color:#e9c156"
         offset="0"
         id="stop4072" />
      <stop
         style="stop-opacity:1;stop-color:#633110"
         offset="0.09074477"
         id="stop4074" />
      <stop
         style="stop-opacity:1;stop-color:#633110"
         offset="0.101763"
         id="stop4076" />
      <stop
         style="stop-opacity:1;stop-color:#633110"
         offset="0.1406752"
         id="stop4078" />
      <stop
         style="stop-opacity:1;stop-color:#e1ab39"
         offset="0.286223"
         id="stop4080" />
      <stop
         style="stop-opacity:1;stop-color:#ffffaa"
         offset="0.56451695"
         id="stop4082" />
      <stop
         style="stop-opacity:1;stop-color:#ffffaa"
         offset="0.819078"
         id="stop4084" />
      <stop
         style="stop-opacity:1;stop-color:#ffffaa"
         offset="0.8784796"
         id="stop4086" />
      <stop
         style="stop-opacity:1;stop-color:#e9c156"
         offset="1"
         id="stop4088" />
    </linearGradient>
    <clipPath
       clipPathUnits="userSpaceOnUse"
       id="clipPath4100">
      <path
         d="m 13204.9,8977.3 h -21.6 l 68.2,160.6 h 23 l 68.5,-160.6 h -23 l -20.8,50.5 h -53.1 l 5.8,16.9 h 40.4 l -30,72.7 z"
         id="path4098" />
    </clipPath>
    <linearGradient
       x1="0"
       y1="0"
       x2="1"
       y2="0"
       gradientUnits="userSpaceOnUse"
       gradientTransform="matrix(-5.22e-5,1195.14,1195.14,5.22e-5,13263.2,8559.8)"
       spreadMethod="pad"
       id="linearGradient4120">
      <stop
         style="stop-opacity:1;stop-color:#e9c156"
         offset="0"
         id="stop4102" />
      <stop
         style="stop-opacity:1;stop-color:#633110"
         offset="0.09074477"
         id="stop4104" />
      <stop
         style="stop-opacity:1;stop-color:#633110"
         offset="0.101763"
         id="stop4106" />
      <stop
         style="stop-opacity:1;stop-color:#633110"
         offset="0.1406752"
         id="stop4108" />
      <stop
         style="stop-opacity:1;stop-color:#e1ab39"
         offset="0.286223"
         id="stop4110" />
      <stop
         style="stop-opacity:1;stop-color:#ffffaa"
         offset="0.56451695"
         id="stop4112" />
      <stop
         style="stop-opacity:1;stop-color:#ffffaa"
         offset="0.819078"
         id="stop4114" />
      <stop
         style="stop-opacity:1;stop-color:#ffffaa"
         offset="0.8784796"
         id="stop4116" />
      <stop
         style="stop-opacity:1;stop-color:#e9c156"
         offset="1"
         id="stop4118" />
    </linearGradient>
    <clipPath
       clipPathUnits="userSpaceOnUse"
       id="clipPath4130">
      <path
         d="m 13578.2,8983.6 c -12.9,-5 -26.9,-7.5 -41.9,-7.5 -58.2,0 -87.2,27.9 -87.2,83.7 0,52.8 28,79.2 84.2,79.2 16.1,0 31.1,-2.2 44.9,-6.7 v -18 c -13.8,5.2 -28.1,7.8 -42.7,7.8 -43.8,0 -65.7,-20.7 -65.7,-62.3 0,-44.5 21.6,-66.8 64.7,-66.8 6.9,0 14.6,0.9 22.9,2.7 v 54.6 h 20.8 z"
         id="path4128" />
    </clipPath>
    <linearGradient
       x1="0"
       y1="0"
       x2="1"
       y2="0"
       gradientUnits="userSpaceOnUse"
       gradientTransform="matrix(-5.22e-5,1195.22,1195.22,5.22e-5,13513.6,8559.7)"
       spreadMethod="pad"
       id="linearGradient4150">
      <stop
         style="stop-opacity:1;stop-color:#e9c156"
         offset="0"
         id="stop4132" />
      <stop
         style="stop-opacity:1;stop-color:#633110"
         offset="0.09074477"
         id="stop4134" />
      <stop
         style="stop-opacity:1;stop-color:#633110"
         offset="0.101763"
         id="stop4136" />
      <stop
         style="stop-opacity:1;stop-color:#633110"
         offset="0.1406752"
         id="stop4138" />
      <stop
         style="stop-opacity:1;stop-color:#e1ab39"
         offset="0.286223"
         id="stop4140" />
      <stop
         style="stop-opacity:1;stop-color:#ffffaa"
         offset="0.56451695"
         id="stop4142" />
      <stop
         style="stop-opacity:1;stop-color:#ffffaa"
         offset="0.819078"
         id="stop4144" />
      <stop
         style="stop-opacity:1;stop-color:#ffffaa"
         offset="0.8784796"
         id="stop4146" />
      <stop
         style="stop-opacity:1;stop-color:#e9c156"
         offset="1"
         id="stop4148" />
    </linearGradient>
    <clipPath
       clipPathUnits="userSpaceOnUse"
       id="clipPath4160">
      <path
         d="m 13725.2,9137.9 v -143.8 h 84.1 v -16.8 h -104.8 v 160.6 z"
         id="path4158" />
    </clipPath>
    <linearGradient
       x1="0"
       y1="0"
       x2="1"
       y2="0"
       gradientUnits="userSpaceOnUse"
       gradientTransform="matrix(-5.22e-5,1195.14,1195.14,5.22e-5,13756.9,8559.8)"
       spreadMethod="pad"
       id="linearGradient4180">
      <stop
         style="stop-opacity:1;stop-color:#e9c156"
         offset="0"
         id="stop4162" />
      <stop
         style="stop-opacity:1;stop-color:#633110"
         offset="0.09074477"
         id="stop4164" />
      <stop
         style="stop-opacity:1;stop-color:#633110"
         offset="0.101763"
         id="stop4166" />
      <stop
         style="stop-opacity:1;stop-color:#633110"
         offset="0.1406752"
         id="stop4168" />
      <stop
         style="stop-opacity:1;stop-color:#e1ab39"
         offset="0.286223"
         id="stop4170" />
      <stop
         style="stop-opacity:1;stop-color:#ffffaa"
         offset="0.56451695"
         id="stop4172" />
      <stop
         style="stop-opacity:1;stop-color:#ffffaa"
         offset="0.819078"
         id="stop4174" />
      <stop
         style="stop-opacity:1;stop-color:#ffffaa"
         offset="0.8784796"
         id="stop4176" />
      <stop
         style="stop-opacity:1;stop-color:#e9c156"
         offset="1"
         id="stop4178" />
    </linearGradient>
    <clipPath
       clipPathUnits="userSpaceOnUse"
       id="clipPath4190">
      <path
         d="m 13950.1,9137.9 v -160.6 h -20.8 v 160.6 z"
         id="path4188" />
    </clipPath>
    <linearGradient
       x1="0"
       y1="0"
       x2="1"
       y2="0"
       gradientUnits="userSpaceOnUse"
       gradientTransform="matrix(-5.22e-5,1195.14,1195.14,5.22e-5,13939.7,8559.8)"
       spreadMethod="pad"
       id="linearGradient4210">
      <stop
         style="stop-opacity:1;stop-color:#e9c156"
         offset="0"
         id="stop4192" />
      <stop
         style="stop-opacity:1;stop-color:#633110"
         offset="0.09074477"
         id="stop4194" />
      <stop
         style="stop-opacity:1;stop-color:#633110"
         offset="0.101763"
         id="stop4196" />
      <stop
         style="stop-opacity:1;stop-color:#633110"
         offset="0.1406752"
         id="stop4198" />
      <stop
         style="stop-opacity:1;stop-color:#e1ab39"
         offset="0.286223"
         id="stop4200" />
      <stop
         style="stop-opacity:1;stop-color:#ffffaa"
         offset="0.56451695"
         id="stop4202" />
      <stop
         style="stop-opacity:1;stop-color:#ffffaa"
         offset="0.819078"
         id="stop4204" />
      <stop
         style="stop-opacity:1;stop-color:#ffffaa"
         offset="0.8784796"
         id="stop4206" />
      <stop
         style="stop-opacity:1;stop-color:#e9c156"
         offset="1"
         id="stop4208" />
    </linearGradient>
    <clipPath
       clipPathUnits="userSpaceOnUse"
       id="clipPath4220">
      <path
         d="m 14083.7,8977.3 v 160.6 h 20.8 l 98.2,-129.4 v 129.4 h 19.7 v -160.6 h -20.8 l -98.3,130.4 v -130.4 z"
         id="path4218" />
    </clipPath>
    <linearGradient
       x1="0"
       y1="0"
       x2="1"
       y2="0"
       gradientUnits="userSpaceOnUse"
       gradientTransform="matrix(-5.22e-5,1195.14,1195.14,5.22e-5,14153,8559.8)"
       spreadMethod="pad"
       id="linearGradient4240">
      <stop
         style="stop-opacity:1;stop-color:#e9c156"
         offset="0"
         id="stop4222" />
      <stop
         style="stop-opacity:1;stop-color:#633110"
         offset="0.09074477"
         id="stop4224" />
      <stop
         style="stop-opacity:1;stop-color:#633110"
         offset="0.101763"
         id="stop4226" />
      <stop
         style="stop-opacity:1;stop-color:#633110"
         offset="0.1406752"
         id="stop4228" />
      <stop
         style="stop-opacity:1;stop-color:#e1ab39"
         offset="0.286223"
         id="stop4230" />
      <stop
         style="stop-opacity:1;stop-color:#ffffaa"
         offset="0.56451695"
         id="stop4232" />
      <stop
         style="stop-opacity:1;stop-color:#ffffaa"
         offset="0.819078"
         id="stop4234" />
      <stop
         style="stop-opacity:1;stop-color:#ffffaa"
         offset="0.8784796"
         id="stop4236" />
      <stop
         style="stop-opacity:1;stop-color:#e9c156"
         offset="1"
         id="stop4238" />
    </linearGradient>
    <clipPath
       clipPathUnits="userSpaceOnUse"
       id="clipPath4250">
      <path
         d="M 14457.6,9137.9 V 9121 h -84.3 v -53.9 h 80.3 v -16.8 h -80.3 v -56.2 h 85.9 v -16.8 h -106.6 v 160.6 z"
         id="path4248" />
    </clipPath>
    <linearGradient
       x1="0"
       y1="0"
       x2="1"
       y2="0"
       gradientUnits="userSpaceOnUse"
       gradientTransform="matrix(-5.22e-5,1195.14,1195.14,5.22e-5,14405.9,8559.8)"
       spreadMethod="pad"
       id="linearGradient4270">
      <stop
         style="stop-opacity:1;stop-color:#e9c156"
         offset="0"
         id="stop4252" />
      <stop
         style="stop-opacity:1;stop-color:#633110"
         offset="0.09074477"
         id="stop4254" />
      <stop
         style="stop-opacity:1;stop-color:#633110"
         offset="0.101763"
         id="stop4256" />
      <stop
         style="stop-opacity:1;stop-color:#633110"
         offset="0.1406752"
         id="stop4258" />
      <stop
         style="stop-opacity:1;stop-color:#e1ab39"
         offset="0.286223"
         id="stop4260" />
      <stop
         style="stop-opacity:1;stop-color:#ffffaa"
         offset="0.56451695"
         id="stop4262" />
      <stop
         style="stop-opacity:1;stop-color:#ffffaa"
         offset="0.819078"
         id="stop4264" />
      <stop
         style="stop-opacity:1;stop-color:#ffffaa"
         offset="0.8784796"
         id="stop4266" />
      <stop
         style="stop-opacity:1;stop-color:#e9c156"
         offset="1"
         id="stop4268" />
    </linearGradient>
    <clipPath
       clipPathUnits="userSpaceOnUse"
       id="clipPath4280">
      <path
         d="m 14728.6,8982.9 v 19.1 c 16.9,-6 35,-9 54.6,-9 27.6,0 41.4,10.1 41.4,30.3 0,17.3 -10.1,25.8 -30.5,25.8 h -20.7 c -33.6,0 -50.4,14.6 -50.4,43.9 0,30.6 21.5,46 64.6,46 18.7,0 36.1,-2.2 52.2,-6.7 v -19.1 c -16.1,6 -33.5,8.9 -52.2,8.9 -29.2,0 -43.8,-9.7 -43.8,-29.1 0,-17.3 9.9,-25.9 29.6,-25.9 h 20.7 c 34.2,0 51.3,-14.6 51.3,-43.8 0,-31.5 -20.7,-47.2 -62.2,-47.2 -19.6,0 -37.7,2.3 -54.6,6.8 z"
         id="path4278" />
    </clipPath>
    <linearGradient
       x1="0"
       y1="0"
       x2="1"
       y2="0"
       gradientUnits="userSpaceOnUse"
       gradientTransform="matrix(-5.22e-5,1195.22,1195.22,5.22e-5,14784.2,8559.7)"
       spreadMethod="pad"
       id="linearGradient4300">
      <stop
         style="stop-opacity:1;stop-color:#e9c156"
         offset="0"
         id="stop4282" />
      <stop
         style="stop-opacity:1;stop-color:#633110"
         offset="0.09074477"
         id="stop4284" />
      <stop
         style="stop-opacity:1;stop-color:#633110"
         offset="0.101763"
         id="stop4286" />
      <stop
         style="stop-opacity:1;stop-color:#633110"
         offset="0.1406752"
         id="stop4288" />
      <stop
         style="stop-opacity:1;stop-color:#e1ab39"
         offset="0.286223"
         id="stop4290" />
      <stop
         style="stop-opacity:1;stop-color:#ffffaa"
         offset="0.56451695"
         id="stop4292" />
      <stop
         style="stop-opacity:1;stop-color:#ffffaa"
         offset="0.819078"
         id="stop4294" />
      <stop
         style="stop-opacity:1;stop-color:#ffffaa"
         offset="0.8784796"
         id="stop4296" />
      <stop
         style="stop-opacity:1;stop-color:#e9c156"
         offset="1"
         id="stop4298" />
    </linearGradient>
    <clipPath
       clipPathUnits="userSpaceOnUse"
       id="clipPath4310">
      <path
         d="m 14967.7,8977.3 v 160.6 h 65.2 c 32.8,0 49.2,-14.4 49.2,-43.1 0,-31.2 -22.5,-50.2 -67.3,-57.1 l -4.2,17.5 c 32.9,4.9 49.3,17.8 49.3,38.8 0,17.7 -9.6,26.7 -28.9,26.7 h -42.5 v -143.4 z"
         id="path4308" />
    </clipPath>
    <linearGradient
       x1="0"
       y1="0"
       x2="1"
       y2="0"
       gradientUnits="userSpaceOnUse"
       gradientTransform="matrix(-5.22e-5,1195.14,1195.14,5.22e-5,15024.9,8559.8)"
       spreadMethod="pad"
       id="linearGradient4330">
      <stop
         style="stop-opacity:1;stop-color:#e9c156"
         offset="0"
         id="stop4312" />
      <stop
         style="stop-opacity:1;stop-color:#633110"
         offset="0.09074477"
         id="stop4314" />
      <stop
         style="stop-opacity:1;stop-color:#633110"
         offset="0.101763"
         id="stop4316" />
      <stop
         style="stop-opacity:1;stop-color:#633110"
         offset="0.1406752"
         id="stop4318" />
      <stop
         style="stop-opacity:1;stop-color:#e1ab39"
         offset="0.286223"
         id="stop4320" />
      <stop
         style="stop-opacity:1;stop-color:#ffffaa"
         offset="0.56451695"
         id="stop4322" />
      <stop
         style="stop-opacity:1;stop-color:#ffffaa"
         offset="0.819078"
         id="stop4324" />
      <stop
         style="stop-opacity:1;stop-color:#ffffaa"
         offset="0.8784796"
         id="stop4326" />
      <stop
         style="stop-opacity:1;stop-color:#e9c156"
         offset="1"
         id="stop4328" />
    </linearGradient>
    <clipPath
       clipPathUnits="userSpaceOnUse"
       id="clipPath4340">
      <path
         d="m 15190,8977.3 h -21.6 l 68.2,160.6 h 23 l 68.6,-160.6 h -23.1 l -20.7,50.5 h -53.2 l 5.8,16.9 h 40.4 l -30,72.7 z"
         id="path4338" />
    </clipPath>
    <linearGradient
       x1="0"
       y1="0"
       x2="1"
       y2="0"
       gradientUnits="userSpaceOnUse"
       gradientTransform="matrix(-5.22e-5,1195.14,1195.14,5.22e-5,15248.3,8559.8)"
       spreadMethod="pad"
       id="linearGradient4360">
      <stop
         style="stop-opacity:1;stop-color:#e9c156"
         offset="0"
         id="stop4342" />
      <stop
         style="stop-opacity:1;stop-color:#633110"
         offset="0.09074477"
         id="stop4344" />
      <stop
         style="stop-opacity:1;stop-color:#633110"
         offset="0.101763"
         id="stop4346" />
      <stop
         style="stop-opacity:1;stop-color:#633110"
         offset="0.1406752"
         id="stop4348" />
      <stop
         style="stop-opacity:1;stop-color:#e1ab39"
         offset="0.286223"
         id="stop4350" />
      <stop
         style="stop-opacity:1;stop-color:#ffffaa"
         offset="0.56451695"
         id="stop4352" />
      <stop
         style="stop-opacity:1;stop-color:#ffffaa"
         offset="0.819078"
         id="stop4354" />
      <stop
         style="stop-opacity:1;stop-color:#ffffaa"
         offset="0.8784796"
         id="stop4356" />
      <stop
         style="stop-opacity:1;stop-color:#e9c156"
         offset="1"
         id="stop4358" />
    </linearGradient>
    <clipPath
       clipPathUnits="userSpaceOnUse"
       id="clipPath4370">
      <path
         d="m 15563.4,8982.9 c -13.9,-4.5 -28.9,-6.8 -45,-6.8 -56.1,0 -84.2,27.9 -84.2,83.7 0,52.8 28.1,79.2 84.2,79.2 16.1,0 31.1,-2.2 45,-6.7 v -18 c -13.9,5.2 -28.1,7.8 -42.7,7.8 -43.8,0 -65.7,-20.7 -65.7,-62.3 0,-44.5 21.9,-66.8 65.7,-66.8 14.6,0 28.8,2.6 42.7,7.9 z"
         id="path4368" />
    </clipPath>
    <linearGradient
       x1="0"
       y1="0"
       x2="1"
       y2="0"
       gradientUnits="userSpaceOnUse"
       gradientTransform="matrix(-5.22e-5,1195.22,1195.22,5.22e-5,15498.8,8559.7)"
       spreadMethod="pad"
       id="linearGradient4390">
      <stop
         style="stop-opacity:1;stop-color:#e9c156"
         offset="0"
         id="stop4372" />
      <stop
         style="stop-opacity:1;stop-color:#633110"
         offset="0.09074477"
         id="stop4374" />
      <stop
         style="stop-opacity:1;stop-color:#633110"
         offset="0.101763"
         id="stop4376" />
      <stop
         style="stop-opacity:1;stop-color:#633110"
         offset="0.1406752"
         id="stop4378" />
      <stop
         style="stop-opacity:1;stop-color:#e1ab39"
         offset="0.286223"
         id="stop4380" />
      <stop
         style="stop-opacity:1;stop-color:#ffffaa"
         offset="0.56451695"
         id="stop4382" />
      <stop
         style="stop-opacity:1;stop-color:#ffffaa"
         offset="0.819078"
         id="stop4384" />
      <stop
         style="stop-opacity:1;stop-color:#ffffaa"
         offset="0.8784796"
         id="stop4386" />
      <stop
         style="stop-opacity:1;stop-color:#e9c156"
         offset="1"
         id="stop4388" />
    </linearGradient>
    <clipPath
       clipPathUnits="userSpaceOnUse"
       id="clipPath4400">
      <path
         d="M 15794.6,9137.9 V 9121 h -84.2 v -53.9 h 80.3 v -16.8 h -80.3 v -56.2 h 85.9 v -16.8 h -106.7 v 160.6 z"
         id="path4398" />
    </clipPath>
    <linearGradient
       x1="0"
       y1="0"
       x2="1"
       y2="0"
       gradientUnits="userSpaceOnUse"
       gradientTransform="matrix(-5.22e-5,1195.14,1195.14,5.22e-5,15743,8559.8)"
       spreadMethod="pad"
       id="linearGradient4420">
      <stop
         style="stop-opacity:1;stop-color:#e9c156"
         offset="0"
         id="stop4402" />
      <stop
         style="stop-opacity:1;stop-color:#633110"
         offset="0.09074477"
         id="stop4404" />
      <stop
         style="stop-opacity:1;stop-color:#633110"
         offset="0.101763"
         id="stop4406" />
      <stop
         style="stop-opacity:1;stop-color:#633110"
         offset="0.1406752"
         id="stop4408" />
      <stop
         style="stop-opacity:1;stop-color:#e1ab39"
         offset="0.286223"
         id="stop4410" />
      <stop
         style="stop-opacity:1;stop-color:#ffffaa"
         offset="0.56451695"
         id="stop4412" />
      <stop
         style="stop-opacity:1;stop-color:#ffffaa"
         offset="0.819078"
         id="stop4414" />
      <stop
         style="stop-opacity:1;stop-color:#ffffaa"
         offset="0.8784796"
         id="stop4416" />
      <stop
         style="stop-opacity:1;stop-color:#e9c156"
         offset="1"
         id="stop4418" />
    </linearGradient>
    <clipPath
       clipPathUnits="userSpaceOnUse"
       id="clipPath4430">
      <path
         d="m 16067.9,8977.3 v 160.6 h 20.8 v -70.8 h 94.9 v 70.8 h 20.8 v -160.6 h -20.8 v 73 h -94.9 v -73 z"
         id="path4428" />
    </clipPath>
    <linearGradient
       x1="0"
       y1="0"
       x2="1"
       y2="0"
       gradientUnits="userSpaceOnUse"
       gradientTransform="matrix(-5.22e-5,1195.14,1195.14,5.22e-5,16136.2,8559.8)"
       spreadMethod="pad"
       id="linearGradient4450">
      <stop
         style="stop-opacity:1;stop-color:#e9c156"
         offset="0"
         id="stop4432" />
      <stop
         style="stop-opacity:1;stop-color:#633110"
         offset="0.09074477"
         id="stop4434" />
      <stop
         style="stop-opacity:1;stop-color:#633110"
         offset="0.101763"
         id="stop4436" />
      <stop
         style="stop-opacity:1;stop-color:#633110"
         offset="0.1406752"
         id="stop4438" />
      <stop
         style="stop-opacity:1;stop-color:#e1ab39"
         offset="0.286223"
         id="stop4440" />
      <stop
         style="stop-opacity:1;stop-color:#ffffaa"
         offset="0.56451695"
         id="stop4442" />
      <stop
         style="stop-opacity:1;stop-color:#ffffaa"
         offset="0.819078"
         id="stop4444" />
      <stop
         style="stop-opacity:1;stop-color:#ffffaa"
         offset="0.8784796"
         id="stop4446" />
      <stop
         style="stop-opacity:1;stop-color:#e9c156"
         offset="1"
         id="stop4448" />
    </linearGradient>
    <clipPath
       clipPathUnits="userSpaceOnUse"
       id="clipPath4460">
      <path
         d="M 16439.6,9137.9 V 9121 h -84.2 v -53.9 h 80.2 v -16.8 h -80.2 v -56.2 h 85.8 v -16.8 h -106.6 v 160.6 z"
         id="path4458" />
    </clipPath>
    <linearGradient
       x1="0"
       y1="0"
       x2="1"
       y2="0"
       gradientUnits="userSpaceOnUse"
       gradientTransform="matrix(-5.22e-5,1195.14,1195.14,5.22e-5,16387.9,8559.8)"
       spreadMethod="pad"
       id="linearGradient4482">
      <stop
         style="stop-opacity:1;stop-color:#e9c156"
         offset="0"
         id="stop4464" />
      <stop
         style="stop-opacity:1;stop-color:#633110"
         offset="0.09074477"
         id="stop4466" />
      <stop
         style="stop-opacity:1;stop-color:#633110"
         offset="0.101763"
         id="stop4468" />
      <stop
         style="stop-opacity:1;stop-color:#633110"
         offset="0.1406752"
         id="stop4470" />
      <stop
         style="stop-opacity:1;stop-color:#e1ab39"
         offset="0.286223"
         id="stop4472" />
      <stop
         style="stop-opacity:1;stop-color:#ffffaa"
         offset="0.56451695"
         id="stop4474" />
      <stop
         style="stop-opacity:1;stop-color:#ffffaa"
         offset="0.819078"
         id="stop4476" />
      <stop
         style="stop-opacity:1;stop-color:#ffffaa"
         offset="0.8784796"
         id="stop4478" />
      <stop
         style="stop-opacity:1;stop-color:#e9c156"
         offset="1"
         id="stop4480" />
    </linearGradient>
    <clipPath
       clipPathUnits="userSpaceOnUse"
       id="clipPath4492">
      <path
         d="m 16564.6,8977.3 v 160.6 h 68.6 c 30.5,0 45.8,-12.9 45.8,-38.6 0,-20.8 -14.9,-36.3 -44.8,-46.3 l 55.1,-75.7 h -27.3 l -51.2,72.2 v 13.6 c 30.8,4.8 46.1,16.6 46.1,35.3 0,14.8 -8.5,22.3 -25.6,22.3 h -45.8 v -143.4 z"
         id="path4490" />
    </clipPath>
    <linearGradient
       x1="0"
       y1="0"
       x2="1"
       y2="0"
       gradientUnits="userSpaceOnUse"
       gradientTransform="matrix(-5.22e-5,1195.14,1195.14,5.22e-5,16627,8559.8)"
       spreadMethod="pad"
       id="linearGradient4514">
      <stop
         style="stop-opacity:1;stop-color:#e9c156"
         offset="0"
         id="stop4496" />
      <stop
         style="stop-opacity:1;stop-color:#633110"
         offset="0.09074477"
         id="stop4498" />
      <stop
         style="stop-opacity:1;stop-color:#633110"
         offset="0.101763"
         id="stop4500" />
      <stop
         style="stop-opacity:1;stop-color:#633110"
         offset="0.1406752"
         id="stop4502" />
      <stop
         style="stop-opacity:1;stop-color:#e1ab39"
         offset="0.286223"
         id="stop4504" />
      <stop
         style="stop-opacity:1;stop-color:#ffffaa"
         offset="0.56451695"
         id="stop4506" />
      <stop
         style="stop-opacity:1;stop-color:#ffffaa"
         offset="0.819078"
         id="stop4508" />
      <stop
         style="stop-opacity:1;stop-color:#ffffaa"
         offset="0.8784796"
         id="stop4510" />
      <stop
         style="stop-opacity:1;stop-color:#e9c156"
         offset="1"
         id="stop4512" />
    </linearGradient>
    <clipPath
       clipPathUnits="userSpaceOnUse"
       id="clipPath4524">
      <path
         d="M 16908.2,9137.9 V 9121 h -84.1 v -53.9 h 80.2 v -16.8 h -80.2 v -56.2 h 85.8 v -16.8 h -106.6 v 160.6 z"
         id="path4522" />
    </clipPath>
    <linearGradient
       x1="0"
       y1="0"
       x2="1"
       y2="0"
       gradientUnits="userSpaceOnUse"
       gradientTransform="matrix(-5.22e-5,1195.14,1195.14,5.22e-5,16856.6,8559.8)"
       spreadMethod="pad"
       id="linearGradient4546">
      <stop
         style="stop-opacity:1;stop-color:#e9c156"
         offset="0"
         id="stop4528" />
      <stop
         style="stop-opacity:1;stop-color:#633110"
         offset="0.09074477"
         id="stop4530" />
      <stop
         style="stop-opacity:1;stop-color:#633110"
         offset="0.101763"
         id="stop4532" />
      <stop
         style="stop-opacity:1;stop-color:#633110"
         offset="0.1406752"
         id="stop4534" />
      <stop
         style="stop-opacity:1;stop-color:#e1ab39"
         offset="0.286223"
         id="stop4536" />
      <stop
         style="stop-opacity:1;stop-color:#ffffaa"
         offset="0.56451695"
         id="stop4538" />
      <stop
         style="stop-opacity:1;stop-color:#ffffaa"
         offset="0.819078"
         id="stop4540" />
      <stop
         style="stop-opacity:1;stop-color:#ffffaa"
         offset="0.8784796"
         id="stop4542" />
      <stop
         style="stop-opacity:1;stop-color:#e9c156"
         offset="1"
         id="stop4544" />
    </linearGradient>
    <clipPath
       clipPathUnits="userSpaceOnUse"
       id="clipPath4556">
      <path
         d="m 17281.2,16026.6 c -259,0 -538.9,107.4 -791.1,433.8 -203.5,263.3 -1508.2,275.3 -1508.2,275.3 0,0 -1304.6,-12 -1508.1,-275.3 v 0 0 c 203.5,263.3 1508.1,275.3 1508.1,275.3 0,0 1304.7,-12 1508.2,-275.3 252.2,-326.4 532.1,-433.8 791.1,-433.8 189.3,0 367.4,57.3 515.6,128.4 -148.2,-71.2 -326.3,-128.4 -515.6,-128.4 m -4598.6,0 c -498.6,0 -920.4,397.9 -920.4,397.9 v 0 c 0,0 421.8,-397.9 920.5,-397.9 126,0 256.9,25.4 387.2,89 -130.3,-63.6 -261.2,-89 -387.3,-89"
         id="path4554" />
    </clipPath>
    <linearGradient
       x1="0"
       y1="0"
       x2="1"
       y2="0"
       gradientUnits="userSpaceOnUse"
       gradientTransform="matrix(6439.41,0,0,-6439.41,11762.2,13514.2)"
       spreadMethod="pad"
       id="linearGradient4578">
      <stop
         style="stop-opacity:1;stop-color:#e9c156"
         offset="0"
         id="stop4560" />
      <stop
         style="stop-opacity:1;stop-color:#633110"
         offset="0.09074477"
         id="stop4562" />
      <stop
         style="stop-opacity:1;stop-color:#633110"
         offset="0.101763"
         id="stop4564" />
      <stop
         style="stop-opacity:1;stop-color:#633110"
         offset="0.1406752"
         id="stop4566" />
      <stop
         style="stop-opacity:1;stop-color:#e1ab39"
         offset="0.286223"
         id="stop4568" />
      <stop
         style="stop-opacity:1;stop-color:#ffffaa"
         offset="0.56451695"
         id="stop4570" />
      <stop
         style="stop-opacity:1;stop-color:#ffffaa"
         offset="0.819078"
         id="stop4572" />
      <stop
         style="stop-opacity:1;stop-color:#ffffaa"
         offset="0.8784796"
         id="stop4574" />
      <stop
         style="stop-opacity:1;stop-color:#e9c156"
         offset="1"
         id="stop4576" />
    </linearGradient>
    <clipPath
       clipPathUnits="userSpaceOnUse"
       id="clipPath4588">
      <path
         d="m 14981.9,10471.3 c -1301.8,773.7 -2193.1,1759.7 -2649.8,2931.7 -386.8,992.6 -384.3,1886.6 -382.6,2478.2 0.2,79.4 0.4,151.4 -0.4,216.4 186.6,-111.7 446.7,-225 733.6,-225 352.7,0 659.8,166 913,493.6 83.9,108.6 731.5,209.2 1386.2,215.5 654.9,-6.3 1302.4,-106.9 1386.3,-215.5 253.1,-327.6 560.3,-493.6 913,-493.6 289.1,0 550.9,115 737.8,227.6 -0.4,-51.8 -0.2,-108.1 -0.1,-169.2 1.3,-554.8 3.4,-1483.3 -384.4,-2492.1 -459.8,-1196.2 -1351.9,-2194.1 -2652.6,-2967.6 m -1912,5644.3 c 137.5,67.3 274.4,177.2 403.9,344.8 -129.6,-167.7 -266.4,-277.5 -403.9,-344.8 m 4726.9,39.4 c 234.1,112.2 393.5,258.9 404.3,268.9 -10.8,-10 -170.3,-156.7 -404.3,-268.9"
         id="path4586" />
    </clipPath>
    <linearGradient
       x1="0"
       y1="0"
       x2="1"
       y2="0"
       gradientUnits="userSpaceOnUse"
       gradientTransform="matrix(6439.41,0,0,-6439.41,11762.2,13514.2)"
       spreadMethod="pad"
       id="linearGradient4600">
      <stop
         style="stop-opacity:1;stop-color:#231f20"
         offset="0"
         id="stop4592" />
      <stop
         style="stop-opacity:1;stop-color:#231f20"
         offset="0.49505"
         id="stop4594" />
      <stop
         style="stop-opacity:1;stop-color:#231f20"
         offset="0.49505"
         id="stop4596" />
      <stop
         style="stop-opacity:1;stop-color:#231f20"
         offset="1"
         id="stop4598" />
    </linearGradient>
    <clipPath
       clipPathUnits="userSpaceOnUse"
       id="clipPath4610">
      <path
         d="m 14981.9,10292.7 c -3090.6,1794.7 -3186.7,4255.5 -3186.7,5468.2 0,80 0.4,154.7 0.4,223.3 0,205.2 -3.7,356.9 -33.4,440.3 0,0 421.8,-397.9 920.4,-397.9 126.1,0 257,25.4 387.3,89 137.5,67.3 274.3,177.1 403.9,344.8 v 0 c 203.5,263.3 1508.1,275.3 1508.1,275.3 0,0 1304.7,-12 1508.2,-275.3 252.2,-326.4 532.1,-433.8 791.1,-433.8 189.3,0 367.4,57.2 515.6,128.4 234,112.2 393.5,258.9 404.3,268.9 0.4,0.4 0.5,0.6 0.5,0.6 -25.8,-72.4 -28.8,-211.9 -28.8,-404.2 0,-59 0.3,-122.9 0.3,-191.4 0.1,-1184.2 -84.5,-3732.2 -3191.2,-5536.2 m -3032.8,5804.9 c 0.8,-65 0.6,-137 0.4,-216.4 -1.7,-591.6 -4.2,-1485.6 382.6,-2478.2 456.7,-1172 1348,-2158 2649.8,-2931.7 1300.7,773.5 2192.8,1771.4 2652.6,2967.6 387.8,1008.8 385.7,1937.3 384.4,2492.1 -0.1,61.1 -0.3,117.4 0.1,169.2 -186.9,-112.6 -448.7,-227.6 -737.8,-227.6 -352.7,0 -659.9,166 -913,493.6 -83.9,108.6 -731.4,209.2 -1386.3,215.5 -654.7,-6.3 -1302.3,-106.9 -1386.2,-215.5 -253.2,-327.6 -560.3,-493.6 -913,-493.6 -286.9,0 -547,113.3 -733.6,225"
         id="path4608" />
    </clipPath>
    <clipPath
       clipPathUnits="userSpaceOnUse"
       id="clipPath4616">
      <path
         d="m 11755.2,13507 h 369.602 v 3235.2 H 11755.2 Z"
         id="path4614" />
    </clipPath>
    <clipPath
       clipPathUnits="userSpaceOnUse"
       id="clipPath4628">
      <path
         d="m 14981.9,10292.7 c -3090.6,1794.7 -3186.7,4255.5 -3186.7,5468.2 0,80 0.4,154.7 0.4,223.3 0,205.2 -3.7,356.9 -33.4,440.3 0,0 421.8,-397.9 920.4,-397.9 126.1,0 257,25.4 387.3,89 137.5,67.3 274.3,177.1 403.9,344.8 v 0 c 203.5,263.3 1508.1,275.3 1508.1,275.3 0,0 1304.7,-12 1508.2,-275.3 252.2,-326.4 532.1,-433.8 791.1,-433.8 189.3,0 367.4,57.2 515.6,128.4 234,112.2 393.5,258.9 404.3,268.9 0.4,0.4 0.5,0.6 0.5,0.6 -25.8,-72.4 -28.8,-211.9 -28.8,-404.2 0,-59 0.3,-122.9 0.3,-191.4 0.1,-1184.2 -84.5,-3732.2 -3191.2,-5536.2 m -3032.8,5804.9 c 0.8,-65 0.6,-137 0.4,-216.4 -1.7,-591.6 -4.2,-1485.6 382.6,-2478.2 456.7,-1172 1348,-2158 2649.8,-2931.7 1300.7,773.5 2192.8,1771.4 2652.6,2967.6 387.8,1008.8 385.7,1937.3 384.4,2492.1 -0.1,61.1 -0.3,117.4 0.1,169.2 -186.9,-112.6 -448.7,-227.6 -737.8,-227.6 -352.7,0 -659.9,166 -913,493.6 -83.9,108.6 -731.4,209.2 -1386.3,215.5 -654.7,-6.3 -1302.3,-106.9 -1386.2,-215.5 -253.2,-327.6 -560.3,-493.6 -913,-493.6 -286.9,0 -547,113.3 -733.6,225"
         id="path4626" />
    </clipPath>
    <clipPath
       clipPathUnits="userSpaceOnUse"
       id="clipPath4634">
      <path
         d="m 13185.6,16012.6 h 729.598 v 729.602 H 13185.6 Z"
         id="path4632" />
    </clipPath>
    <clipPath
       clipPathUnits="userSpaceOnUse"
       id="clipPath4646">
      <path
         d="m 14981.9,10292.7 c -3090.6,1794.7 -3186.7,4255.5 -3186.7,5468.2 0,80 0.4,154.7 0.4,223.3 0,205.2 -3.7,356.9 -33.4,440.3 0,0 421.8,-397.9 920.4,-397.9 126.1,0 257,25.4 387.3,89 137.5,67.3 274.3,177.1 403.9,344.8 v 0 c 203.5,263.3 1508.1,275.3 1508.1,275.3 0,0 1304.7,-12 1508.2,-275.3 252.2,-326.4 532.1,-433.8 791.1,-433.8 189.3,0 367.4,57.2 515.6,128.4 234,112.2 393.5,258.9 404.3,268.9 0.4,0.4 0.5,0.6 0.5,0.6 -25.8,-72.4 -28.8,-211.9 -28.8,-404.2 0,-59 0.3,-122.9 0.3,-191.4 0.1,-1184.2 -84.5,-3732.2 -3191.2,-5536.2 m -3032.8,5804.9 c 0.8,-65 0.6,-137 0.4,-216.4 -1.7,-591.6 -4.2,-1485.6 382.6,-2478.2 456.7,-1172 1348,-2158 2649.8,-2931.7 1300.7,773.5 2192.8,1771.4 2652.6,2967.6 387.8,1008.8 385.7,1937.3 384.4,2492.1 -0.1,61.1 -0.3,117.4 0.1,169.2 -186.9,-112.6 -448.7,-227.6 -737.8,-227.6 -352.7,0 -659.9,166 -913,493.6 -83.9,108.6 -731.4,209.2 -1386.3,215.5 -654.7,-6.3 -1302.3,-106.9 -1386.2,-215.5 -253.2,-327.6 -560.3,-493.6 -913,-493.6 -286.9,0 -547,113.3 -733.6,225"
         id="path4644" />
    </clipPath>
    <clipPath
       clipPathUnits="userSpaceOnUse"
       id="clipPath4652">
      <path
         d="M 13900.8,16372.6 H 16776 v 369.602 h -2875.2 z"
         id="path4650" />
    </clipPath>
    <clipPath
       clipPathUnits="userSpaceOnUse"
       id="clipPath4664">
      <path
         d="m 14981.9,10292.7 c -3090.6,1794.7 -3186.7,4255.5 -3186.7,5468.2 0,80 0.4,154.7 0.4,223.3 0,205.2 -3.7,356.9 -33.4,440.3 0,0 421.8,-397.9 920.4,-397.9 126.1,0 257,25.4 387.3,89 137.5,67.3 274.3,177.1 403.9,344.8 v 0 c 203.5,263.3 1508.1,275.3 1508.1,275.3 0,0 1304.7,-12 1508.2,-275.3 252.2,-326.4 532.1,-433.8 791.1,-433.8 189.3,0 367.4,57.2 515.6,128.4 234,112.2 393.5,258.9 404.3,268.9 0.4,0.4 0.5,0.6 0.5,0.6 -25.8,-72.4 -28.8,-211.9 -28.8,-404.2 0,-59 0.3,-122.9 0.3,-191.4 0.1,-1184.2 -84.5,-3732.2 -3191.2,-5536.2 m -3032.8,5804.9 c 0.8,-65 0.6,-137 0.4,-216.4 -1.7,-591.6 -4.2,-1485.6 382.6,-2478.2 456.7,-1172 1348,-2158 2649.8,-2931.7 1300.7,773.5 2192.8,1771.4 2652.6,2967.6 387.8,1008.8 385.7,1937.3 384.4,2492.1 -0.1,61.1 -0.3,117.4 0.1,169.2 -186.9,-112.6 -448.7,-227.6 -737.8,-227.6 -352.7,0 -659.9,166 -913,493.6 -83.9,108.6 -731.4,209.2 -1386.3,215.5 -654.7,-6.3 -1302.3,-106.9 -1386.2,-215.5 -253.2,-327.6 -560.3,-493.6 -913,-493.6 -286.9,0 -547,113.3 -733.6,225"
         id="path4662" />
    </clipPath>
    <clipPath
       clipPathUnits="userSpaceOnUse"
       id="clipPath4670">
      <path
         d="m 17836.8,13507 h 374.398 v 3235.2 H 17836.8 Z"
         id="path4668" />
    </clipPath>
    <clipPath
       clipPathUnits="userSpaceOnUse"
       id="clipPath4682">
      <path
         d="m 14981.9,10292.7 c -3090.6,1794.7 -3186.7,4255.5 -3186.7,5468.2 0,80 0.4,154.7 0.4,223.3 0,205.2 -3.7,356.9 -33.4,440.3 0,0 421.8,-397.9 920.4,-397.9 126.1,0 257,25.4 387.3,89 137.5,67.3 274.3,177.1 403.9,344.8 v 0 c 203.5,263.3 1508.1,275.3 1508.1,275.3 0,0 1304.7,-12 1508.2,-275.3 252.2,-326.4 532.1,-433.8 791.1,-433.8 189.3,0 367.4,57.2 515.6,128.4 234,112.2 393.5,258.9 404.3,268.9 0.4,0.4 0.5,0.6 0.5,0.6 -25.8,-72.4 -28.8,-211.9 -28.8,-404.2 0,-59 0.3,-122.9 0.3,-191.4 0.1,-1184.2 -84.5,-3732.2 -3191.2,-5536.2 m -3032.8,5804.9 c 0.8,-65 0.6,-137 0.4,-216.4 -1.7,-591.6 -4.2,-1485.6 382.6,-2478.2 456.7,-1172 1348,-2158 2649.8,-2931.7 1300.7,773.5 2192.8,1771.4 2652.6,2967.6 387.8,1008.8 385.7,1937.3 384.4,2492.1 -0.1,61.1 -0.3,117.4 0.1,169.2 -186.9,-112.6 -448.7,-227.6 -737.8,-227.6 -352.7,0 -659.9,166 -913,493.6 -83.9,108.6 -731.4,209.2 -1386.3,215.5 -654.7,-6.3 -1302.3,-106.9 -1386.2,-215.5 -253.2,-327.6 -560.3,-493.6 -913,-493.6 -286.9,0 -547,113.3 -733.6,225"
         id="path4680" />
    </clipPath>
    <clipPath
       clipPathUnits="userSpaceOnUse"
       id="clipPath4688">
      <path
         d="M 12110.4,15652.6 H 13200 v 734.402 h -1089.6 z"
         id="path4686" />
    </clipPath>
    <clipPath
       clipPathUnits="userSpaceOnUse"
       id="clipPath4700">
      <path
         d="m 14981.9,10292.7 c -3090.6,1794.7 -3186.7,4255.5 -3186.7,5468.2 0,80 0.4,154.7 0.4,223.3 0,205.2 -3.7,356.9 -33.4,440.3 0,0 421.8,-397.9 920.4,-397.9 126.1,0 257,25.4 387.3,89 137.5,67.3 274.3,177.1 403.9,344.8 v 0 c 203.5,263.3 1508.1,275.3 1508.1,275.3 0,0 1304.7,-12 1508.2,-275.3 252.2,-326.4 532.1,-433.8 791.1,-433.8 189.3,0 367.4,57.2 515.6,128.4 234,112.2 393.5,258.9 404.3,268.9 0.4,0.4 0.5,0.6 0.5,0.6 -25.8,-72.4 -28.8,-211.9 -28.8,-404.2 0,-59 0.3,-122.9 0.3,-191.4 0.1,-1184.2 -84.5,-3732.2 -3191.2,-5536.2 m -3032.8,5804.9 c 0.8,-65 0.6,-137 0.4,-216.4 -1.7,-591.6 -4.2,-1485.6 382.6,-2478.2 456.7,-1172 1348,-2158 2649.8,-2931.7 1300.7,773.5 2192.8,1771.4 2652.6,2967.6 387.8,1008.8 385.7,1937.3 384.4,2492.1 -0.1,61.1 -0.3,117.4 0.1,169.2 -186.9,-112.6 -448.7,-227.6 -737.8,-227.6 -352.7,0 -659.9,166 -913,493.6 -83.9,108.6 -731.4,209.2 -1386.3,215.5 -654.7,-6.3 -1302.3,-106.9 -1386.2,-215.5 -253.2,-327.6 -560.3,-493.6 -913,-493.6 -286.9,0 -547,113.3 -733.6,225"
         id="path4698" />
    </clipPath>
    <clipPath
       clipPathUnits="userSpaceOnUse"
       id="clipPath4706">
      <path
         d="m 16046.4,16012.6 h 1804.8 v 374.402 h -1804.8 z"
         id="path4704" />
    </clipPath>
    <clipPath
       clipPathUnits="userSpaceOnUse"
       id="clipPath4718">
      <path
         d="m 14981.9,10292.7 c -3090.6,1794.7 -3186.7,4255.5 -3186.7,5468.2 0,80 0.4,154.7 0.4,223.3 0,205.2 -3.7,356.9 -33.4,440.3 0,0 421.8,-397.9 920.4,-397.9 126.1,0 257,25.4 387.3,89 137.5,67.3 274.3,177.1 403.9,344.8 v 0 c 203.5,263.3 1508.1,275.3 1508.1,275.3 0,0 1304.7,-12 1508.2,-275.3 252.2,-326.4 532.1,-433.8 791.1,-433.8 189.3,0 367.4,57.2 515.6,128.4 234,112.2 393.5,258.9 404.3,268.9 0.4,0.4 0.5,0.6 0.5,0.6 -25.8,-72.4 -28.8,-211.9 -28.8,-404.2 0,-59 0.3,-122.9 0.3,-191.4 0.1,-1184.2 -84.5,-3732.2 -3191.2,-5536.2 m -3032.8,5804.9 c 0.8,-65 0.6,-137 0.4,-216.4 -1.7,-591.6 -4.2,-1485.6 382.6,-2478.2 456.7,-1172 1348,-2158 2649.8,-2931.7 1300.7,773.5 2192.8,1771.4 2652.6,2967.6 387.8,1008.8 385.7,1937.3 384.4,2492.1 -0.1,61.1 -0.3,117.4 0.1,169.2 -186.9,-112.6 -448.7,-227.6 -737.8,-227.6 -352.7,0 -659.9,166 -913,493.6 -83.9,108.6 -731.4,209.2 -1386.3,215.5 -654.7,-6.3 -1302.3,-106.9 -1386.2,-215.5 -253.2,-327.6 -560.3,-493.6 -913,-493.6 -286.9,0 -547,113.3 -733.6,225"
         id="path4716" />
    </clipPath>
    <clipPath
       clipPathUnits="userSpaceOnUse"
       id="clipPath4724">
      <path
         d="m 13185.6,15652.6 h 374.398 v 374.402 H 13185.6 Z"
         id="path4722" />
    </clipPath>
    <clipPath
       clipPathUnits="userSpaceOnUse"
       id="clipPath4736">
      <path
         d="m 14981.9,10292.7 c -3090.6,1794.7 -3186.7,4255.5 -3186.7,5468.2 0,80 0.4,154.7 0.4,223.3 0,205.2 -3.7,356.9 -33.4,440.3 0,0 421.8,-397.9 920.4,-397.9 126.1,0 257,25.4 387.3,89 137.5,67.3 274.3,177.1 403.9,344.8 v 0 c 203.5,263.3 1508.1,275.3 1508.1,275.3 0,0 1304.7,-12 1508.2,-275.3 252.2,-326.4 532.1,-433.8 791.1,-433.8 189.3,0 367.4,57.2 515.6,128.4 234,112.2 393.5,258.9 404.3,268.9 0.4,0.4 0.5,0.6 0.5,0.6 -25.8,-72.4 -28.8,-211.9 -28.8,-404.2 0,-59 0.3,-122.9 0.3,-191.4 0.1,-1184.2 -84.5,-3732.2 -3191.2,-5536.2 m -3032.8,5804.9 c 0.8,-65 0.6,-137 0.4,-216.4 -1.7,-591.6 -4.2,-1485.6 382.6,-2478.2 456.7,-1172 1348,-2158 2649.8,-2931.7 1300.7,773.5 2192.8,1771.4 2652.6,2967.6 387.8,1008.8 385.7,1937.3 384.4,2492.1 -0.1,61.1 -0.3,117.4 0.1,169.2 -186.9,-112.6 -448.7,-227.6 -737.8,-227.6 -352.7,0 -659.9,166 -913,493.6 -83.9,108.6 -731.4,209.2 -1386.3,215.5 -654.7,-6.3 -1302.3,-106.9 -1386.2,-215.5 -253.2,-327.6 -560.3,-493.6 -913,-493.6 -286.9,0 -547,113.3 -733.6,225"
         id="path4734" />
    </clipPath>
    <clipPath
       clipPathUnits="userSpaceOnUse"
       id="clipPath4742">
      <path
         d="m 16406.4,15652.6 h 1444.8 v 374.402 h -1444.8 z"
         id="path4740" />
    </clipPath>
    <clipPath
       clipPathUnits="userSpaceOnUse"
       id="clipPath4754">
      <path
         d="m 14981.9,10292.7 c -3090.6,1794.7 -3186.7,4255.5 -3186.7,5468.2 0,80 0.4,154.7 0.4,223.3 0,205.2 -3.7,356.9 -33.4,440.3 0,0 421.8,-397.9 920.4,-397.9 126.1,0 257,25.4 387.3,89 137.5,67.3 274.3,177.1 403.9,344.8 v 0 c 203.5,263.3 1508.1,275.3 1508.1,275.3 0,0 1304.7,-12 1508.2,-275.3 252.2,-326.4 532.1,-433.8 791.1,-433.8 189.3,0 367.4,57.2 515.6,128.4 234,112.2 393.5,258.9 404.3,268.9 0.4,0.4 0.5,0.6 0.5,0.6 -25.8,-72.4 -28.8,-211.9 -28.8,-404.2 0,-59 0.3,-122.9 0.3,-191.4 0.1,-1184.2 -84.5,-3732.2 -3191.2,-5536.2 m -3032.8,5804.9 c 0.8,-65 0.6,-137 0.4,-216.4 -1.7,-591.6 -4.2,-1485.6 382.6,-2478.2 456.7,-1172 1348,-2158 2649.8,-2931.7 1300.7,773.5 2192.8,1771.4 2652.6,2967.6 387.8,1008.8 385.7,1937.3 384.4,2492.1 -0.1,61.1 -0.3,117.4 0.1,169.2 -186.9,-112.6 -448.7,-227.6 -737.8,-227.6 -352.7,0 -659.9,166 -913,493.6 -83.9,108.6 -731.4,209.2 -1386.3,215.5 -654.7,-6.3 -1302.3,-106.9 -1386.2,-215.5 -253.2,-327.6 -560.3,-493.6 -913,-493.6 -286.9,0 -547,113.3 -733.6,225"
         id="path4752" />
    </clipPath>
    <clipPath
       clipPathUnits="userSpaceOnUse"
       id="clipPath4760">
      <path
         d="m 12110.4,12431.8 h 374.398 v 1804.8 H 12110.4 Z"
         id="path4758" />
    </clipPath>
    <clipPath
       clipPathUnits="userSpaceOnUse"
       id="clipPath4772">
      <path
         d="m 14981.9,10292.7 c -3090.6,1794.7 -3186.7,4255.5 -3186.7,5468.2 0,80 0.4,154.7 0.4,223.3 0,205.2 -3.7,356.9 -33.4,440.3 0,0 421.8,-397.9 920.4,-397.9 126.1,0 257,25.4 387.3,89 137.5,67.3 274.3,177.1 403.9,344.8 v 0 c 203.5,263.3 1508.1,275.3 1508.1,275.3 0,0 1304.7,-12 1508.2,-275.3 252.2,-326.4 532.1,-433.8 791.1,-433.8 189.3,0 367.4,57.2 515.6,128.4 234,112.2 393.5,258.9 404.3,268.9 0.4,0.4 0.5,0.6 0.5,0.6 -25.8,-72.4 -28.8,-211.9 -28.8,-404.2 0,-59 0.3,-122.9 0.3,-191.4 0.1,-1184.2 -84.5,-3732.2 -3191.2,-5536.2 m -3032.8,5804.9 c 0.8,-65 0.6,-137 0.4,-216.4 -1.7,-591.6 -4.2,-1485.6 382.6,-2478.2 456.7,-1172 1348,-2158 2649.8,-2931.7 1300.7,773.5 2192.8,1771.4 2652.6,2967.6 387.8,1008.8 385.7,1937.3 384.4,2492.1 -0.1,61.1 -0.3,117.4 0.1,169.2 -186.9,-112.6 -448.7,-227.6 -737.8,-227.6 -352.7,0 -659.9,166 -913,493.6 -83.9,108.6 -731.4,209.2 -1386.3,215.5 -654.7,-6.3 -1302.3,-106.9 -1386.2,-215.5 -253.2,-327.6 -560.3,-493.6 -913,-493.6 -286.9,0 -547,113.3 -733.6,225"
         id="path4770" />
    </clipPath>
    <clipPath
       clipPathUnits="userSpaceOnUse"
       id="clipPath4778">
      <path
         d="m 17476.8,12431.8 h 374.398 v 1804.8 H 17476.8 Z"
         id="path4776" />
    </clipPath>
    <clipPath
       clipPathUnits="userSpaceOnUse"
       id="clipPath4790">
      <path
         d="m 14981.9,10292.7 c -3090.6,1794.7 -3186.7,4255.5 -3186.7,5468.2 0,80 0.4,154.7 0.4,223.3 0,205.2 -3.7,356.9 -33.4,440.3 0,0 421.8,-397.9 920.4,-397.9 126.1,0 257,25.4 387.3,89 137.5,67.3 274.3,177.1 403.9,344.8 v 0 c 203.5,263.3 1508.1,275.3 1508.1,275.3 0,0 1304.7,-12 1508.2,-275.3 252.2,-326.4 532.1,-433.8 791.1,-433.8 189.3,0 367.4,57.2 515.6,128.4 234,112.2 393.5,258.9 404.3,268.9 0.4,0.4 0.5,0.6 0.5,0.6 -25.8,-72.4 -28.8,-211.9 -28.8,-404.2 0,-59 0.3,-122.9 0.3,-191.4 0.1,-1184.2 -84.5,-3732.2 -3191.2,-5536.2 m -3032.8,5804.9 c 0.8,-65 0.6,-137 0.4,-216.4 -1.7,-591.6 -4.2,-1485.6 382.6,-2478.2 456.7,-1172 1348,-2158 2649.8,-2931.7 1300.7,773.5 2192.8,1771.4 2652.6,2967.6 387.8,1008.8 385.7,1937.3 384.4,2492.1 -0.1,61.1 -0.3,117.4 0.1,169.2 -186.9,-112.6 -448.7,-227.6 -737.8,-227.6 -352.7,0 -659.9,166 -913,493.6 -83.9,108.6 -731.4,209.2 -1386.3,215.5 -654.7,-6.3 -1302.3,-106.9 -1386.2,-215.5 -253.2,-327.6 -560.3,-493.6 -913,-493.6 -286.9,0 -547,113.3 -733.6,225"
         id="path4788" />
    </clipPath>
    <clipPath
       clipPathUnits="userSpaceOnUse"
       id="clipPath4796">
      <path
         d="m 12470.4,12076.6 h 374.398 v 1084.8 H 12470.4 Z"
         id="path4794" />
    </clipPath>
    <clipPath
       clipPathUnits="userSpaceOnUse"
       id="clipPath4808">
      <path
         d="m 14981.9,10292.7 c -3090.6,1794.7 -3186.7,4255.5 -3186.7,5468.2 0,80 0.4,154.7 0.4,223.3 0,205.2 -3.7,356.9 -33.4,440.3 0,0 421.8,-397.9 920.4,-397.9 126.1,0 257,25.4 387.3,89 137.5,67.3 274.3,177.1 403.9,344.8 v 0 c 203.5,263.3 1508.1,275.3 1508.1,275.3 0,0 1304.7,-12 1508.2,-275.3 252.2,-326.4 532.1,-433.8 791.1,-433.8 189.3,0 367.4,57.2 515.6,128.4 234,112.2 393.5,258.9 404.3,268.9 0.4,0.4 0.5,0.6 0.5,0.6 -25.8,-72.4 -28.8,-211.9 -28.8,-404.2 0,-59 0.3,-122.9 0.3,-191.4 0.1,-1184.2 -84.5,-3732.2 -3191.2,-5536.2 m -3032.8,5804.9 c 0.8,-65 0.6,-137 0.4,-216.4 -1.7,-591.6 -4.2,-1485.6 382.6,-2478.2 456.7,-1172 1348,-2158 2649.8,-2931.7 1300.7,773.5 2192.8,1771.4 2652.6,2967.6 387.8,1008.8 385.7,1937.3 384.4,2492.1 -0.1,61.1 -0.3,117.4 0.1,169.2 -186.9,-112.6 -448.7,-227.6 -737.8,-227.6 -352.7,0 -659.9,166 -913,493.6 -83.9,108.6 -731.4,209.2 -1386.3,215.5 -654.7,-6.3 -1302.3,-106.9 -1386.2,-215.5 -253.2,-327.6 -560.3,-493.6 -913,-493.6 -286.9,0 -547,113.3 -733.6,225"
         id="path4806" />
    </clipPath>
    <clipPath
       clipPathUnits="userSpaceOnUse"
       id="clipPath4814">
      <path
         d="m 17121.6,12076.6 h 369.598 v 1084.8 H 17121.6 Z"
         id="path4812" />
    </clipPath>
    <clipPath
       clipPathUnits="userSpaceOnUse"
       id="clipPath4826">
      <path
         d="m 14981.9,10292.7 c -3090.6,1794.7 -3186.7,4255.5 -3186.7,5468.2 0,80 0.4,154.7 0.4,223.3 0,205.2 -3.7,356.9 -33.4,440.3 0,0 421.8,-397.9 920.4,-397.9 126.1,0 257,25.4 387.3,89 137.5,67.3 274.3,177.1 403.9,344.8 v 0 c 203.5,263.3 1508.1,275.3 1508.1,275.3 0,0 1304.7,-12 1508.2,-275.3 252.2,-326.4 532.1,-433.8 791.1,-433.8 189.3,0 367.4,57.2 515.6,128.4 234,112.2 393.5,258.9 404.3,268.9 0.4,0.4 0.5,0.6 0.5,0.6 -25.8,-72.4 -28.8,-211.9 -28.8,-404.2 0,-59 0.3,-122.9 0.3,-191.4 0.1,-1184.2 -84.5,-3732.2 -3191.2,-5536.2 m -3032.8,5804.9 c 0.8,-65 0.6,-137 0.4,-216.4 -1.7,-591.6 -4.2,-1485.6 382.6,-2478.2 456.7,-1172 1348,-2158 2649.8,-2931.7 1300.7,773.5 2192.8,1771.4 2652.6,2967.6 387.8,1008.8 385.7,1937.3 384.4,2492.1 -0.1,61.1 -0.3,117.4 0.1,169.2 -186.9,-112.6 -448.7,-227.6 -737.8,-227.6 -352.7,0 -659.9,166 -913,493.6 -83.9,108.6 -731.4,209.2 -1386.3,215.5 -654.7,-6.3 -1302.3,-106.9 -1386.2,-215.5 -253.2,-327.6 -560.3,-493.6 -913,-493.6 -286.9,0 -547,113.3 -733.6,225"
         id="path4824" />
    </clipPath>
    <clipPath
       clipPathUnits="userSpaceOnUse"
       id="clipPath4832">
      <path
         d="m 16761.6,11716.6 h 374.398 v 1089.6 H 16761.6 Z"
         id="path4830" />
    </clipPath>
    <clipPath
       clipPathUnits="userSpaceOnUse"
       id="clipPath4844">
      <path
         d="m 14981.9,10292.7 c -3090.6,1794.7 -3186.7,4255.5 -3186.7,5468.2 0,80 0.4,154.7 0.4,223.3 0,205.2 -3.7,356.9 -33.4,440.3 0,0 421.8,-397.9 920.4,-397.9 126.1,0 257,25.4 387.3,89 137.5,67.3 274.3,177.1 403.9,344.8 v 0 c 203.5,263.3 1508.1,275.3 1508.1,275.3 0,0 1304.7,-12 1508.2,-275.3 252.2,-326.4 532.1,-433.8 791.1,-433.8 189.3,0 367.4,57.2 515.6,128.4 234,112.2 393.5,258.9 404.3,268.9 0.4,0.4 0.5,0.6 0.5,0.6 -25.8,-72.4 -28.8,-211.9 -28.8,-404.2 0,-59 0.3,-122.9 0.3,-191.4 0.1,-1184.2 -84.5,-3732.2 -3191.2,-5536.2 m -3032.8,5804.9 c 0.8,-65 0.6,-137 0.4,-216.4 -1.7,-591.6 -4.2,-1485.6 382.6,-2478.2 456.7,-1172 1348,-2158 2649.8,-2931.7 1300.7,773.5 2192.8,1771.4 2652.6,2967.6 387.8,1008.8 385.7,1937.3 384.4,2492.1 -0.1,61.1 -0.3,117.4 0.1,169.2 -186.9,-112.6 -448.7,-227.6 -737.8,-227.6 -352.7,0 -659.9,166 -913,493.6 -83.9,108.6 -731.4,209.2 -1386.3,215.5 -654.7,-6.3 -1302.3,-106.9 -1386.2,-215.5 -253.2,-327.6 -560.3,-493.6 -913,-493.6 -286.9,0 -547,113.3 -733.6,225"
         id="path4842" />
    </clipPath>
    <clipPath
       clipPathUnits="userSpaceOnUse"
       id="clipPath4850">
      <path
         d="m 12830.4,11361.4 h 369.598 v 1084.8 H 12830.4 Z"
         id="path4848" />
    </clipPath>
    <clipPath
       clipPathUnits="userSpaceOnUse"
       id="clipPath4862">
      <path
         d="m 14981.9,10292.7 c -3090.6,1794.7 -3186.7,4255.5 -3186.7,5468.2 0,80 0.4,154.7 0.4,223.3 0,205.2 -3.7,356.9 -33.4,440.3 0,0 421.8,-397.9 920.4,-397.9 126.1,0 257,25.4 387.3,89 137.5,67.3 274.3,177.1 403.9,344.8 v 0 c 203.5,263.3 1508.1,275.3 1508.1,275.3 0,0 1304.7,-12 1508.2,-275.3 252.2,-326.4 532.1,-433.8 791.1,-433.8 189.3,0 367.4,57.2 515.6,128.4 234,112.2 393.5,258.9 404.3,268.9 0.4,0.4 0.5,0.6 0.5,0.6 -25.8,-72.4 -28.8,-211.9 -28.8,-404.2 0,-59 0.3,-122.9 0.3,-191.4 0.1,-1184.2 -84.5,-3732.2 -3191.2,-5536.2 m -3032.8,5804.9 c 0.8,-65 0.6,-137 0.4,-216.4 -1.7,-591.6 -4.2,-1485.6 382.6,-2478.2 456.7,-1172 1348,-2158 2649.8,-2931.7 1300.7,773.5 2192.8,1771.4 2652.6,2967.6 387.8,1008.8 385.7,1937.3 384.4,2492.1 -0.1,61.1 -0.3,117.4 0.1,169.2 -186.9,-112.6 -448.7,-227.6 -737.8,-227.6 -352.7,0 -659.9,166 -913,493.6 -83.9,108.6 -731.4,209.2 -1386.3,215.5 -654.7,-6.3 -1302.3,-106.9 -1386.2,-215.5 -253.2,-327.6 -560.3,-493.6 -913,-493.6 -286.9,0 -547,113.3 -733.6,225"
         id="path4860" />
    </clipPath>
    <clipPath
       clipPathUnits="userSpaceOnUse"
       id="clipPath4868">
      <path
         d="m 13185.6,11001.4 h 374.398 V 12091 H 13185.6 Z"
         id="path4866" />
    </clipPath>
    <clipPath
       clipPathUnits="userSpaceOnUse"
       id="clipPath4880">
      <path
         d="m 14981.9,10292.7 c -3090.6,1794.7 -3186.7,4255.5 -3186.7,5468.2 0,80 0.4,154.7 0.4,223.3 0,205.2 -3.7,356.9 -33.4,440.3 0,0 421.8,-397.9 920.4,-397.9 126.1,0 257,25.4 387.3,89 137.5,67.3 274.3,177.1 403.9,344.8 v 0 c 203.5,263.3 1508.1,275.3 1508.1,275.3 0,0 1304.7,-12 1508.2,-275.3 252.2,-326.4 532.1,-433.8 791.1,-433.8 189.3,0 367.4,57.2 515.6,128.4 234,112.2 393.5,258.9 404.3,268.9 0.4,0.4 0.5,0.6 0.5,0.6 -25.8,-72.4 -28.8,-211.9 -28.8,-404.2 0,-59 0.3,-122.9 0.3,-191.4 0.1,-1184.2 -84.5,-3732.2 -3191.2,-5536.2 m -3032.8,5804.9 c 0.8,-65 0.6,-137 0.4,-216.4 -1.7,-591.6 -4.2,-1485.6 382.6,-2478.2 456.7,-1172 1348,-2158 2649.8,-2931.7 1300.7,773.5 2192.8,1771.4 2652.6,2967.6 387.8,1008.8 385.7,1937.3 384.4,2492.1 -0.1,61.1 -0.3,117.4 0.1,169.2 -186.9,-112.6 -448.7,-227.6 -737.8,-227.6 -352.7,0 -659.9,166 -913,493.6 -83.9,108.6 -731.4,209.2 -1386.3,215.5 -654.7,-6.3 -1302.3,-106.9 -1386.2,-215.5 -253.2,-327.6 -560.3,-493.6 -913,-493.6 -286.9,0 -547,113.3 -733.6,225"
         id="path4878" />
    </clipPath>
    <clipPath
       clipPathUnits="userSpaceOnUse"
       id="clipPath4886">
      <path
         d="m 16406.4,11001.4 h 369.598 V 12091 H 16406.4 Z"
         id="path4884" />
    </clipPath>
    <clipPath
       clipPathUnits="userSpaceOnUse"
       id="clipPath4898">
      <path
         d="m 14981.9,10292.7 c -3090.6,1794.7 -3186.7,4255.5 -3186.7,5468.2 0,80 0.4,154.7 0.4,223.3 0,205.2 -3.7,356.9 -33.4,440.3 0,0 421.8,-397.9 920.4,-397.9 126.1,0 257,25.4 387.3,89 137.5,67.3 274.3,177.1 403.9,344.8 v 0 c 203.5,263.3 1508.1,275.3 1508.1,275.3 0,0 1304.7,-12 1508.2,-275.3 252.2,-326.4 532.1,-433.8 791.1,-433.8 189.3,0 367.4,57.2 515.6,128.4 234,112.2 393.5,258.9 404.3,268.9 0.4,0.4 0.5,0.6 0.5,0.6 -25.8,-72.4 -28.8,-211.9 -28.8,-404.2 0,-59 0.3,-122.9 0.3,-191.4 0.1,-1184.2 -84.5,-3732.2 -3191.2,-5536.2 m -3032.8,5804.9 c 0.8,-65 0.6,-137 0.4,-216.4 -1.7,-591.6 -4.2,-1485.6 382.6,-2478.2 456.7,-1172 1348,-2158 2649.8,-2931.7 1300.7,773.5 2192.8,1771.4 2652.6,2967.6 387.8,1008.8 385.7,1937.3 384.4,2492.1 -0.1,61.1 -0.3,117.4 0.1,169.2 -186.9,-112.6 -448.7,-227.6 -737.8,-227.6 -352.7,0 -659.9,166 -913,493.6 -83.9,108.6 -731.4,209.2 -1386.3,215.5 -654.7,-6.3 -1302.3,-106.9 -1386.2,-215.5 -253.2,-327.6 -560.3,-493.6 -913,-493.6 -286.9,0 -547,113.3 -733.6,225"
         id="path4896" />
    </clipPath>
    <clipPath
       clipPathUnits="userSpaceOnUse"
       id="clipPath4904">
      <path
         d="m 13545.6,11001.4 h 369.598 v 729.602 H 13545.6 Z"
         id="path4902" />
    </clipPath>
    <clipPath
       clipPathUnits="userSpaceOnUse"
       id="clipPath4916">
      <path
         d="m 14981.9,10292.7 c -3090.6,1794.7 -3186.7,4255.5 -3186.7,5468.2 0,80 0.4,154.7 0.4,223.3 0,205.2 -3.7,356.9 -33.4,440.3 0,0 421.8,-397.9 920.4,-397.9 126.1,0 257,25.4 387.3,89 137.5,67.3 274.3,177.1 403.9,344.8 v 0 c 203.5,263.3 1508.1,275.3 1508.1,275.3 0,0 1304.7,-12 1508.2,-275.3 252.2,-326.4 532.1,-433.8 791.1,-433.8 189.3,0 367.4,57.2 515.6,128.4 234,112.2 393.5,258.9 404.3,268.9 0.4,0.4 0.5,0.6 0.5,0.6 -25.8,-72.4 -28.8,-211.9 -28.8,-404.2 0,-59 0.3,-122.9 0.3,-191.4 0.1,-1184.2 -84.5,-3732.2 -3191.2,-5536.2 m -3032.8,5804.9 c 0.8,-65 0.6,-137 0.4,-216.4 -1.7,-591.6 -4.2,-1485.6 382.6,-2478.2 456.7,-1172 1348,-2158 2649.8,-2931.7 1300.7,773.5 2192.8,1771.4 2652.6,2967.6 387.8,1008.8 385.7,1937.3 384.4,2492.1 -0.1,61.1 -0.3,117.4 0.1,169.2 -186.9,-112.6 -448.7,-227.6 -737.8,-227.6 -352.7,0 -659.9,166 -913,493.6 -83.9,108.6 -731.4,209.2 -1386.3,215.5 -654.7,-6.3 -1302.3,-106.9 -1386.2,-215.5 -253.2,-327.6 -560.3,-493.6 -913,-493.6 -286.9,0 -547,113.3 -733.6,225"
         id="path4914" />
    </clipPath>
    <clipPath
       clipPathUnits="userSpaceOnUse"
       id="clipPath4922">
      <path
         d="m 16046.4,11001.4 h 374.398 v 729.602 H 16046.4 Z"
         id="path4920" />
    </clipPath>
    <clipPath
       clipPathUnits="userSpaceOnUse"
       id="clipPath4934">
      <path
         d="m 14981.9,10292.7 c -3090.6,1794.7 -3186.7,4255.5 -3186.7,5468.2 0,80 0.4,154.7 0.4,223.3 0,205.2 -3.7,356.9 -33.4,440.3 0,0 421.8,-397.9 920.4,-397.9 126.1,0 257,25.4 387.3,89 137.5,67.3 274.3,177.1 403.9,344.8 v 0 c 203.5,263.3 1508.1,275.3 1508.1,275.3 0,0 1304.7,-12 1508.2,-275.3 252.2,-326.4 532.1,-433.8 791.1,-433.8 189.3,0 367.4,57.2 515.6,128.4 234,112.2 393.5,258.9 404.3,268.9 0.4,0.4 0.5,0.6 0.5,0.6 -25.8,-72.4 -28.8,-211.9 -28.8,-404.2 0,-59 0.3,-122.9 0.3,-191.4 0.1,-1184.2 -84.5,-3732.2 -3191.2,-5536.2 m -3032.8,5804.9 c 0.8,-65 0.6,-137 0.4,-216.4 -1.7,-591.6 -4.2,-1485.6 382.6,-2478.2 456.7,-1172 1348,-2158 2649.8,-2931.7 1300.7,773.5 2192.8,1771.4 2652.6,2967.6 387.8,1008.8 385.7,1937.3 384.4,2492.1 -0.1,61.1 -0.3,117.4 0.1,169.2 -186.9,-112.6 -448.7,-227.6 -737.8,-227.6 -352.7,0 -659.9,166 -913,493.6 -83.9,108.6 -731.4,209.2 -1386.3,215.5 -654.7,-6.3 -1302.3,-106.9 -1386.2,-215.5 -253.2,-327.6 -560.3,-493.6 -913,-493.6 -286.9,0 -547,113.3 -733.6,225"
         id="path4932" />
    </clipPath>
    <clipPath
       clipPathUnits="userSpaceOnUse"
       id="clipPath4940">
      <path
         d="m 13900.8,10641.4 h 374.398 v 734.398 H 13900.8 Z"
         id="path4938" />
    </clipPath>
    <clipPath
       clipPathUnits="userSpaceOnUse"
       id="clipPath4952">
      <path
         d="m 14981.9,10292.7 c -3090.6,1794.7 -3186.7,4255.5 -3186.7,5468.2 0,80 0.4,154.7 0.4,223.3 0,205.2 -3.7,356.9 -33.4,440.3 0,0 421.8,-397.9 920.4,-397.9 126.1,0 257,25.4 387.3,89 137.5,67.3 274.3,177.1 403.9,344.8 v 0 c 203.5,263.3 1508.1,275.3 1508.1,275.3 0,0 1304.7,-12 1508.2,-275.3 252.2,-326.4 532.1,-433.8 791.1,-433.8 189.3,0 367.4,57.2 515.6,128.4 234,112.2 393.5,258.9 404.3,268.9 0.4,0.4 0.5,0.6 0.5,0.6 -25.8,-72.4 -28.8,-211.9 -28.8,-404.2 0,-59 0.3,-122.9 0.3,-191.4 0.1,-1184.2 -84.5,-3732.2 -3191.2,-5536.2 m -3032.8,5804.9 c 0.8,-65 0.6,-137 0.4,-216.4 -1.7,-591.6 -4.2,-1485.6 382.6,-2478.2 456.7,-1172 1348,-2158 2649.8,-2931.7 1300.7,773.5 2192.8,1771.4 2652.6,2967.6 387.8,1008.8 385.7,1937.3 384.4,2492.1 -0.1,61.1 -0.3,117.4 0.1,169.2 -186.9,-112.6 -448.7,-227.6 -737.8,-227.6 -352.7,0 -659.9,166 -913,493.6 -83.9,108.6 -731.4,209.2 -1386.3,215.5 -654.7,-6.3 -1302.3,-106.9 -1386.2,-215.5 -253.2,-327.6 -560.3,-493.6 -913,-493.6 -286.9,0 -547,113.3 -733.6,225"
         id="path4950" />
    </clipPath>
    <clipPath
       clipPathUnits="userSpaceOnUse"
       id="clipPath4958">
      <path
         d="m 15691.2,10641.4 h 369.602 v 734.398 H 15691.2 Z"
         id="path4956" />
    </clipPath>
    <clipPath
       clipPathUnits="userSpaceOnUse"
       id="clipPath4970">
      <path
         d="m 14981.9,10292.7 c -3090.6,1794.7 -3186.7,4255.5 -3186.7,5468.2 0,80 0.4,154.7 0.4,223.3 0,205.2 -3.7,356.9 -33.4,440.3 0,0 421.8,-397.9 920.4,-397.9 126.1,0 257,25.4 387.3,89 137.5,67.3 274.3,177.1 403.9,344.8 v 0 c 203.5,263.3 1508.1,275.3 1508.1,275.3 0,0 1304.7,-12 1508.2,-275.3 252.2,-326.4 532.1,-433.8 791.1,-433.8 189.3,0 367.4,57.2 515.6,128.4 234,112.2 393.5,258.9 404.3,268.9 0.4,0.4 0.5,0.6 0.5,0.6 -25.8,-72.4 -28.8,-211.9 -28.8,-404.2 0,-59 0.3,-122.9 0.3,-191.4 0.1,-1184.2 -84.5,-3732.2 -3191.2,-5536.2 m -3032.8,5804.9 c 0.8,-65 0.6,-137 0.4,-216.4 -1.7,-591.6 -4.2,-1485.6 382.6,-2478.2 456.7,-1172 1348,-2158 2649.8,-2931.7 1300.7,773.5 2192.8,1771.4 2652.6,2967.6 387.8,1008.8 385.7,1937.3 384.4,2492.1 -0.1,61.1 -0.3,117.4 0.1,169.2 -186.9,-112.6 -448.7,-227.6 -737.8,-227.6 -352.7,0 -659.9,166 -913,493.6 -83.9,108.6 -731.4,209.2 -1386.3,215.5 -654.7,-6.3 -1302.3,-106.9 -1386.2,-215.5 -253.2,-327.6 -560.3,-493.6 -913,-493.6 -286.9,0 -547,113.3 -733.6,225"
         id="path4968" />
    </clipPath>
    <clipPath
       clipPathUnits="userSpaceOnUse"
       id="clipPath4976">
      <path
         d="m 14260.8,10286.2 h 1444.8 v 729.598 h -1444.8 z"
         id="path4974" />
    </clipPath>
    <clipPath
       clipPathUnits="userSpaceOnUse"
       id="clipPath4988">
      <path
         d="m 16900.1,17970 -33.4,155.7 137.9,79.9 33.3,-155.7 z m -942.5,408.7 84.4,-140.5 -113.6,-112.1 c -1.2,0.3 -2.4,1 -3.7,1.2 l -2,0.1 -81.7,136.1 z m -975.7,749.8 129.6,-164.9 -129.6,-164.9 -129.6,164.9 z m -975.6,-749.8 116.6,-115.2 -81.7,-136.1 -2.1,-0.1 c -1.3,-0.2 -2.4,-0.9 -3.7,-1.2 l -113.5,112.1 z m -1047,-173.1 137.8,-79.9 -33.3,-155.7 -137.8,79.9 z m 4155.7,-163.7 -49.6,231.5 c -4.9,22.6 -31.5,34.5 -51.5,22.8 l -204.8,-118.8 c -15,-8.6 -23.1,-26.8 -19.5,-43.8 l 42.4,-197.2 -639.3,-694.8 -215,824.1 140.4,138.7 c 12.7,12.6 15.2,32.2 6,47.6 l -125.4,208.9 c -12.2,20.4 -43.6,24.3 -60.5,7.7 l -173.4,-171.3 c -12.7,-12.6 -15.2,-32.2 -6,-47.5 l 95.5,-159 -405.8,-561 -406.2,1185.1 171.4,218.1 c 14.1,18 14.1,43.3 0,61.3 l -192.8,245.2 c -18.8,24 -59.2,24 -78,0 l -192.7,-245.2 c -14.2,-18 -14.2,-43.3 0,-61.3 l 171.3,-218.1 -406.1,-1185.1 -405.8,561 95.5,159 c 9.2,15.3 6.7,34.9 -6,47.5 l -173.5,171.3 c -16.8,16.6 -48.2,12.7 -60.4,-7.7 l -125.4,-208.9 c -9.3,-15.4 -6.8,-35 5.9,-47.6 l 140.4,-138.7 -214.9,-824.1 -639.3,694.8 42.4,197.2 c 3.6,17 -4.5,35.2 -19.5,43.8 l -204.8,118.8 c -20,11.7 -46.7,-0.2 -51.5,-22.8 l -49.6,-231.5 c -3.7,-17.1 4.3,-35.1 19.3,-43.8 l 145.5,-84.4 c -0.7,-6 -0.9,-12.1 0.2,-18.4 l 207.5,-1178.5 c 5.4,-30.2 31.7,-51.4 61.3,-51.4 3.6,0 7.2,0.3 10.8,0.9 33.9,6 56.5,38.3 50.6,72.1 l -170.7,969 583.4,-634 c 15.4,-16.8 38.7,-23.8 60.9,-18.3 22.1,5.5 39.4,22.6 45.1,44.7 l 214.7,822.9 407.4,-563.3 c 13.6,-18.8 36.5,-28.4 59.6,-25 23,3.4 42.2,19.3 49.8,41.3 l 387.6,1131.3 387.7,-1131.3 c 7.5,-22 26.7,-37.9 49.7,-41.3 23.1,-3.4 46,6.2 59.7,25 l 407.4,563.3 214.6,-822.9 c 5.8,-22.1 23.1,-39.2 45.2,-44.7 22.1,-5.5 45.4,1.5 60.9,18.3 l 583.3,634 -170.6,-969 c -6,-33.8 16.6,-66.1 50.5,-72.1 3.7,-0.6 7.3,-0.9 10.9,-0.9 29.6,0 55.9,21.2 61.2,51.4 l 207.6,1178.5 c 1.1,6.3 1,12.4 0.2,18.4 l 145.5,84.4 c 15,8.7 23,26.7 19.3,43.8 z"
         id="path4986" />
    </clipPath>
    <linearGradient
       x1="0"
       y1="0"
       x2="1"
       y2="0"
       gradientUnits="userSpaceOnUse"
       gradientTransform="matrix(-1.226e-4,2805.58,2805.58,1.226e-4,14981.9,16620.5)"
       spreadMethod="pad"
       id="linearGradient5010">
      <stop
         style="stop-opacity:1;stop-color:#e9c156"
         offset="0"
         id="stop4992" />
      <stop
         style="stop-opacity:1;stop-color:#633110"
         offset="0.09074477"
         id="stop4994" />
      <stop
         style="stop-opacity:1;stop-color:#633110"
         offset="0.101763"
         id="stop4996" />
      <stop
         style="stop-opacity:1;stop-color:#633110"
         offset="0.1406752"
         id="stop4998" />
      <stop
         style="stop-opacity:1;stop-color:#e1ab39"
         offset="0.286223"
         id="stop5000" />
      <stop
         style="stop-opacity:1;stop-color:#ffffaa"
         offset="0.56451695"
         id="stop5002" />
      <stop
         style="stop-opacity:1;stop-color:#ffffaa"
         offset="0.819078"
         id="stop5004" />
      <stop
         style="stop-opacity:1;stop-color:#ffffaa"
         offset="0.8784796"
         id="stop5006" />
      <stop
         style="stop-opacity:1;stop-color:#e9c156"
         offset="1"
         id="stop5008" />
    </linearGradient>
    <clipPath
       clipPathUnits="userSpaceOnUse"
       id="clipPath5020">
      <path
         d="m 14318.1,14187.2 c 29.1,0 54.4,-0.4 75.9,-1.1 21.5,-0.8 39.1,-1.2 52.9,-1.2 297.6,0 522,64.4 673.1,193.3 151.1,128.8 226.6,293 226.6,492.4 0,194.8 -60.9,353.3 -182.9,475.2 -122,122 -283.4,182.9 -484.4,182.9 -89,0 -209.4,-14.6 -361.2,-43.7 z M 16534,12583.4 h -833 l -1056.2,1458.8 c -78.2,-3 -141.9,-4.5 -191,-4.5 -19.9,0 -41.4,0.3 -64.4,1.1 -23,0.8 -46.8,1.9 -71.3,3.4 v -906.6 c 0,-196.4 21.4,-318.3 64.4,-365.8 58.3,-67.5 145.7,-101.3 262.3,-101.3 h 122 v -85.1 h -1336.9 v 85.1 h 117.3 c 131.9,0 226.3,42.9 283.1,128.9 32.1,47.5 48.3,160.2 48.3,338.2 v 2015.8 c 0,196.3 -21.6,318.3 -64.5,365.8 -59.8,67.5 -148.8,101.3 -266.9,101.3 h -117.3 v 85.1 h 1136.7 c 331.3,0 575.6,-24.2 732.9,-72.5 157.2,-48.3 290.7,-137.3 400.4,-266.9 109.6,-129.6 164.5,-284.1 164.5,-463.6 0,-191.8 -62.5,-358.3 -187.6,-499.4 -125,-141.1 -318.7,-240.8 -581,-299.1 l 644.3,-895.2 c 147.3,-205.5 273.8,-342.1 379.7,-409.5 105.9,-67.6 244,-110.5 414.2,-128.9 z"
         id="path5018" />
    </clipPath>
    <linearGradient
       x1="0"
       y1="0"
       x2="1"
       y2="0"
       gradientUnits="userSpaceOnUse"
       gradientTransform="matrix(-1.364e-4,3120.25,3120.25,1.364e-4,14981.9,12583.4)"
       spreadMethod="pad"
       id="linearGradient5042">
      <stop
         style="stop-opacity:1;stop-color:#e9c156"
         offset="0"
         id="stop5024" />
      <stop
         style="stop-opacity:1;stop-color:#633110"
         offset="0.09074477"
         id="stop5026" />
      <stop
         style="stop-opacity:1;stop-color:#633110"
         offset="0.101763"
         id="stop5028" />
      <stop
         style="stop-opacity:1;stop-color:#633110"
         offset="0.1406752"
         id="stop5030" />
      <stop
         style="stop-opacity:1;stop-color:#e1ab39"
         offset="0.286223"
         id="stop5032" />
      <stop
         style="stop-opacity:1;stop-color:#ffffaa"
         offset="0.56451695"
         id="stop5034" />
      <stop
         style="stop-opacity:1;stop-color:#ffffaa"
         offset="0.819078"
         id="stop5036" />
      <stop
         style="stop-opacity:1;stop-color:#ffffaa"
         offset="0.8784796"
         id="stop5038" />
      <stop
         style="stop-opacity:1;stop-color:#e9c156"
         offset="1"
         id="stop5040" />
    </linearGradient>
    <clipPath
       clipPathUnits="userSpaceOnUse"
       id="clipPath5216">
      <path
         d="m 22564.8,2091.7 c -655,389.3 -1103.4,885.4 -1333.3,1475.1 -194.6,499.4 -193.3,949.2 -192.5,1246.8 0.1,40 0.2,76.2 -0.2,109 93.9,-56.2 224.8,-113.3 369.1,-113.3 177.5,0 332,83.6 459.4,248.4 42.2,54.6 368.1,105.3 697.5,108.4 329.5,-3.1 655.3,-53.8 697.5,-108.4 127.4,-164.8 281.9,-248.4 459.4,-248.4 145.5,0 277.2,57.9 371.2,114.5 -0.1,-26 -0.1,-54.3 0,-85.1 0.6,-279.1 1.7,-746.3 -193.5,-1253.9 -231.3,-601.8 -680.2,-1104 -1334.6,-1493.1 m 1380.5,2843.6 c 139.5,58.4 236.7,149.1 239.5,151.7 -2.8,-2.6 -100,-93.3 -239.5,-151.7 m -2240.5,63.2 c 1,0.8 1.9,1.6 2.9,2.4 -1,-0.8 -1.9,-1.6 -2.9,-2.4 m 3.1,2.6 c 33.3,28.3 66.1,62.7 98.1,104 -32,-41.4 -64.8,-75.7 -98.1,-104"
         id="path5214" />
    </clipPath>
    <linearGradient
       x1="0"
       y1="0"
       x2="1"
       y2="0"
       gradientUnits="userSpaceOnUse"
       gradientTransform="matrix(18444.3,0,0,-18444.3,15000,3782.2)"
       spreadMethod="pad"
       id="linearGradient5232">
      <stop
         style="stop-opacity:1;stop-color:#ebc767"
         offset="0"
         id="stop5220" />
      <stop
         style="stop-opacity:1;stop-color:#c68d1a"
         offset="0.101763"
         id="stop5222" />
      <stop
         style="stop-opacity:1;stop-color:#e4b44d"
         offset="0.285616"
         id="stop5224" />
      <stop
         style="stop-opacity:1;stop-color:#ebc869"
         offset="0.690949"
         id="stop5226" />
      <stop
         style="stop-opacity:1;stop-color:#ffffb3"
         offset="0.919754"
         id="stop5228" />
      <stop
         style="stop-opacity:1;stop-color:#ebc767"
         offset="1"
         id="stop5230" />
    </linearGradient>
  </defs>
  <metadata
     id="metadata5">
    <rdf:RDF>
      <cc:Work
         rdf:about="">
        <dc:format>image/svg+xml</dc:format>
        <dc:type
           rdf:resource="http://purl.org/dc/dcmitype/StillImage" />
        <dc:title></dc:title>
      </cc:Work>
    </rdf:RDF>
  </metadata>
  <g
     id="layer1">
    <g
       id="g3740"
       transform="matrix(0.35277777,0,0,-0.35277777,-228.29738,721.7435)">
      <g
         id="g3742"
         transform="scale(0.1)">
        <g
           transform="translate(-24540.284,11717.752)"
           id="g6013">
          <path
             id="path5100"
             style="fill:#262223;fill-opacity:1;fill-rule:nonzero;stroke:none"
             d="m 34018.876,2332.2348 c -1555.05,903 -1603.39,2141.1 -1603.4,2751.3 0,40.3 0.21,77.9 0.21,112.4 0,103.2 -1.86,179.6 -16.81,221.5 0,0 212.21,-200.2 463.11,-200.2 108.89,0 225.06,37.7 334.34,145.9 21.55,21.3 42.83,45.3 63.74,72.4 v 0 c 102.39,132.5 758.81,138.5 758.81,138.5 0,0 656.46,-6 758.83,-138.5 126.89,-164.2 267.73,-218.3 398.07,-218.3 92.73,0 180.14,27.3 253.55,61.8 117.03,55 198.36,128.1 208.49,137.4 0.08,0.1 0.15,0.2 0.21,0.2 0.42,0.4 0.69,0.7 0.8,0.8 0.04,0 0.06,0 0.06,0 -12.98,-36.4 -14.51,-106.6 -14.5,-203.4 0,-29.9 0.14,-62.5 0.14,-97.3 -0.02,-596.3 -43.44,-1877.3 -1605.65,-2784.5 m -1525.98,2920.8 c 0.4,-32.8 0.3,-69 0.18,-109 -0.84,-297.6 -2.11,-747.4 192.53,-1246.8 229.82,-589.7 678.27,-1085.8 1333.27,-1475.1 654.42,389.1 1103.29,891.3 1334.63,1493.1 195.13,507.6 194.09,974.8 193.46,1253.9 -0.07,30.8 -0.15,59.1 0.05,85.1 -94.04,-56.6 -225.77,-114.5 -371.22,-114.5 -177.5,0 -332.04,83.6 -459.42,248.4 -42.2,54.6 -368.02,105.3 -697.5,108.4 -329.45,-3.1 -655.29,-53.8 -697.49,-108.4 -127.36,-164.8 -281.92,-248.4 -459.39,-248.4 -144.35,0 -275.2,57.1 -369.1,113.3" />
          <path
             id="path5102"
             style="fill:#231f20;fill-opacity:1;fill-rule:nonzero;stroke:none"
             d="m 34984.026,6195.0348 -16.8,78.4 69.34,40.2 16.76,-78.4 z m -474.24,205.7 42.45,-70.7 -57.14,-56.4 -1.84,0.6 -1,0.1 -41.15,68.4 z m -490.9,377.3 65.18,-83 -65.18,-83 -65.22,83 z m -490.92,-377.3 58.69,-58 -41.13,-68.4 -1.02,-0.1 -1.85,-0.6 -57.13,56.4 z m -526.77,-87.1 69.33,-40.2 -16.77,-78.4 -69.33,40.2 z m 2090.95,-82.4 -24.98,116.5 c -2.42,11.4 -15.84,17.4 -25.88,11.5 l -103.08,-59.8 c -7.54,-4.3 -11.59,-13.5 -9.77,-22 l 21.29,-99.2 -321.64,-349.6 -108.17,414.6 70.64,69.8 c 6.4,6.4 7.66,16.2 3,23.9 l -63.09,105.1 c -6.15,10.3 -21.92,12.3 -30.43,3.9 l -87.25,-86.2 c -6.41,-6.3 -7.65,-16.2 -3,-23.9 l 48.03,-80 -204.2,-282.2 -204.36,596.3 86.22,109.7 c 7.12,9 7.12,21.8 0,30.8 l -96.98,123.4 c -9.47,12.1 -29.79,12.1 -39.23,0 l -96.99,-123.4 c -7.13,-9 -7.13,-21.8 0,-30.8 l 86.22,-109.7 -204.34,-596.3 -204.21,282.2 48.05,80 c 4.63,7.7 3.39,17.6 -3.02,23.9 l -87.26,86.2 c -8.48,8.4 -24.25,6.4 -30.43,-3.9 l -63.08,-105.1 c -4.65,-7.7 -3.4,-17.5 2.99,-23.9 l 70.65,-69.8 -108.17,-414.6 -321.62,349.6 21.3,99.2 c 1.81,8.5 -2.25,17.7 -9.81,22 l -103.06,59.8 c -10.06,5.9 -23.46,-0.1 -25.9,-11.5 l -24.96,-116.5 c -1.84,-8.5 2.18,-17.6 9.75,-22 l 73.18,-42.5 c -0.37,-3 -0.43,-6.1 0.12,-9.2 l 104.41,-593 c 2.69,-15.2 15.9,-25.9 30.82,-25.9 1.81,0 3.63,0.2 5.46,0.5 17.05,3 28.42,19.3 25.43,36.3 l -85.86,487.5 293.53,-319 c 7.74,-8.4 19.44,-12 30.64,-9.2 11.1,2.8 19.81,11.4 22.71,22.5 l 108,414 204.97,-283.3 c 6.88,-9.5 18.38,-14.4 30.02,-12.7 11.57,1.8 21.22,9.8 25.01,20.9 l 195.07,569.2 195.07,-569.2 c 3.78,-11.1 13.44,-19.1 25,-20.9 11.6,-1.7 23.15,3.2 30.02,12.7 l 204.99,283.3 107.99,-414 c 2.89,-11.1 11.6,-19.7 22.72,-22.5 11.15,-2.8 22.85,0.8 30.63,9.2 l 293.52,319 -85.86,-487.5 c -2.98,-17 8.37,-33.3 25.42,-36.3 1.85,-0.3 3.67,-0.5 5.48,-0.5 14.9,0 28.13,10.7 30.79,25.9 l 104.45,593 c 0.56,3.1 0.5,6.2 0.09,9.2 l 73.22,42.5 c 7.56,4.4 11.56,13.5 9.73,22" />
          <path
             id="path5104"
             style="fill:#231f20;fill-opacity:1;fill-rule:nonzero;stroke:none"
             d="m 33684.846,4291.7348 c 14.65,0 27.41,-0.2 38.21,-0.5 10.8,-0.4 19.68,-0.6 26.63,-0.6 149.74,0 262.64,32.4 338.67,97.2 76.01,64.9 114.03,147.4 114.03,247.8 0,98 -30.68,177.7 -92.04,239.1 -61.37,61.4 -142.61,92 -243.73,92 -44.77,0 -105.35,-7.3 -181.77,-22 z m 1114.97,-806.9 h -419.13 l -531.43,734 c -39.36,-1.6 -71.4,-2.3 -96.09,-2.3 -10.04,0 -20.84,0.2 -32.41,0.5 -11.58,0.4 -23.56,1 -35.91,1.8 v -456.2 c 0,-98.8 10.8,-160.2 32.42,-184.1 29.32,-33.9 73.32,-50.9 131.99,-50.9 h 61.36 v -42.8 h -672.67 v 42.8 h 59.05 c 66.38,0 113.85,21.6 142.42,64.8 16.19,23.9 24.31,80.7 24.31,170.2 v 1014.2 c 0,98.8 -10.83,160.2 -32.43,184.1 -30.09,34 -74.88,51 -134.3,51 h -59.05 v 42.8 h 571.95 c 166.72,0 289.62,-12.1 368.75,-36.5 79.1,-24.3 146.27,-69.1 201.47,-134.3 55.16,-65.2 82.77,-142.9 82.77,-233.2 0,-96.5 -31.44,-180.3 -94.36,-251.3 -62.9,-71 -160.35,-121.2 -292.33,-150.5 l 324.16,-450.4 c 74.13,-103.4 137.78,-172.1 191.05,-206.1 53.26,-34 122.74,-55.5 208.41,-64.8 v -42.8" />
        </g>
      </g>
    </g>
  </g>
</svg>
